<mxfile host="65bd71144e">
    <diagram id="LI0IquLlYpqjYgVpYU_D" name="ページ2">
        <mxGraphModel dx="1614" dy="2433" grid="1" gridSize="10" guides="1" tooltips="1" connect="1" arrows="1" fold="1" page="1" pageScale="1" pageWidth="1169" pageHeight="827" math="0" shadow="0">
            <root>
                <mxCell id="kU3VAMtRWlbckvyZx4EI-0"/>
                <mxCell id="kU3VAMtRWlbckvyZx4EI-1" parent="kU3VAMtRWlbckvyZx4EI-0"/>
                <mxCell id="kU3VAMtRWlbckvyZx4EI-8" value="AWS Cloud" style="outlineConnect=0;gradientColor=none;html=1;whiteSpace=wrap;fontSize=12;fontStyle=0;shape=mxgraph.aws4.group;grIcon=mxgraph.aws4.group_aws_cloud;strokeColor=#AAB7B8;fillColor=none;verticalAlign=top;align=left;spacingLeft=30;fontColor=#AAB7B8;dashed=0;" parent="kU3VAMtRWlbckvyZx4EI-1" vertex="1">
                    <mxGeometry x="3.82" y="-1490" width="1630" height="1970" as="geometry"/>
                </mxCell>
                <mxCell id="kU3VAMtRWlbckvyZx4EI-2" value="&lt;font color=&quot;#3333ff&quot;&gt;Private subnet&lt;/font&gt;" style="points=[[0,0],[0.25,0],[0.5,0],[0.75,0],[1,0],[1,0.25],[1,0.5],[1,0.75],[1,1],[0.75,1],[0.5,1],[0.25,1],[0,1],[0,0.75],[0,0.5],[0,0.25]];outlineConnect=0;html=1;whiteSpace=wrap;fontSize=12;fontStyle=0;shape=mxgraph.aws4.group;grIcon=mxgraph.aws4.group_security_group;grStroke=0;verticalAlign=top;align=left;spacingLeft=30;dashed=0;fillColor=#dae8fc;strokeColor=#6c8ebf;" parent="kU3VAMtRWlbckvyZx4EI-1" vertex="1">
                    <mxGeometry x="726.32" y="-280" width="251.18" height="160" as="geometry"/>
                </mxCell>
                <mxCell id="kU3VAMtRWlbckvyZx4EI-3" value="" style="rounded=1;arcSize=10;dashed=1;strokeColor=#F59D56;fillColor=none;gradientColor=none;dashPattern=8 4;strokeWidth=2;" parent="kU3VAMtRWlbckvyZx4EI-1" vertex="1">
                    <mxGeometry x="680" y="-980" width="330" height="1340" as="geometry"/>
                </mxCell>
                <mxCell id="kU3VAMtRWlbckvyZx4EI-4" value="&lt;font color=&quot;#3333ff&quot;&gt;Private subnet&lt;/font&gt;" style="points=[[0,0],[0.25,0],[0.5,0],[0.75,0],[1,0],[1,0.25],[1,0.5],[1,0.75],[1,1],[0.75,1],[0.5,1],[0.25,1],[0,1],[0,0.75],[0,0.5],[0,0.25]];outlineConnect=0;html=1;whiteSpace=wrap;fontSize=12;fontStyle=0;shape=mxgraph.aws4.group;grIcon=mxgraph.aws4.group_security_group;grStroke=0;verticalAlign=top;align=left;spacingLeft=30;dashed=0;fillColor=#dae8fc;strokeColor=#6c8ebf;" parent="kU3VAMtRWlbckvyZx4EI-1" vertex="1">
                    <mxGeometry x="361.6" y="-280" width="230" height="160" as="geometry"/>
                </mxCell>
                <mxCell id="kU3VAMtRWlbckvyZx4EI-5" value="Tokyo Region" style="points=[[0,0],[0.25,0],[0.5,0],[0.75,0],[1,0],[1,0.25],[1,0.5],[1,0.75],[1,1],[0.75,1],[0.5,1],[0.25,1],[0,1],[0,0.75],[0,0.5],[0,0.25]];outlineConnect=0;gradientColor=none;html=1;whiteSpace=wrap;fontSize=12;fontStyle=0;shape=mxgraph.aws4.group;grIcon=mxgraph.aws4.group_region;strokeColor=#147EBA;fillColor=none;verticalAlign=top;align=left;spacingLeft=30;fontColor=#147EBA;dashed=1;" parent="kU3VAMtRWlbckvyZx4EI-1" vertex="1">
                    <mxGeometry x="175" y="-1120" width="1230" height="1560" as="geometry"/>
                </mxCell>
                <mxCell id="kU3VAMtRWlbckvyZx4EI-6" value="VPC" style="points=[[0,0],[0.25,0],[0.5,0],[0.75,0],[1,0],[1,0.25],[1,0.5],[1,0.75],[1,1],[0.75,1],[0.5,1],[0.25,1],[0,1],[0,0.75],[0,0.5],[0,0.25]];outlineConnect=0;gradientColor=none;html=1;whiteSpace=wrap;fontSize=12;fontStyle=0;shape=mxgraph.aws4.group;grIcon=mxgraph.aws4.group_vpc;strokeColor=#248814;fillColor=none;verticalAlign=top;align=left;spacingLeft=30;fontColor=#AAB7B8;dashed=0;" parent="kU3VAMtRWlbckvyZx4EI-1" vertex="1">
                    <mxGeometry x="213.93" y="-1080" width="946.07" height="1480" as="geometry"/>
                </mxCell>
                <mxCell id="kU3VAMtRWlbckvyZx4EI-7" value="" style="rounded=1;arcSize=10;dashed=1;strokeColor=#F59D56;fillColor=none;gradientColor=none;dashPattern=8 4;strokeWidth=2;" parent="kU3VAMtRWlbckvyZx4EI-1" vertex="1">
                    <mxGeometry x="320" y="-980" width="330" height="1340" as="geometry"/>
                </mxCell>
                <mxCell id="kU3VAMtRWlbckvyZx4EI-9" value="" style="rounded=1;arcSize=10;dashed=1;strokeColor=#ff0000;fillColor=none;gradientColor=none;dashPattern=8 4;strokeWidth=2;" parent="kU3VAMtRWlbckvyZx4EI-1" vertex="1">
                    <mxGeometry x="380" y="-260" width="571.26" height="160" as="geometry"/>
                </mxCell>
                <mxCell id="kU3VAMtRWlbckvyZx4EI-10" value="&lt;font color=&quot;#3333ff&quot;&gt;Private subnet&lt;/font&gt;" style="points=[[0,0],[0.25,0],[0.5,0],[0.75,0],[1,0],[1,0.25],[1,0.5],[1,0.75],[1,1],[0.75,1],[0.5,1],[0.25,1],[0,1],[0,0.75],[0,0.5],[0,0.25]];outlineConnect=0;html=1;whiteSpace=wrap;fontSize=12;fontStyle=0;shape=mxgraph.aws4.group;grIcon=mxgraph.aws4.group_security_group;grStroke=0;verticalAlign=top;align=left;spacingLeft=30;dashed=0;fillColor=#dae8fc;strokeColor=#6c8ebf;" parent="kU3VAMtRWlbckvyZx4EI-1" vertex="1">
                    <mxGeometry x="360" y="-450" width="230" height="160" as="geometry"/>
                </mxCell>
                <mxCell id="kU3VAMtRWlbckvyZx4EI-11" value="&lt;font color=&quot;#3333ff&quot;&gt;Private subnet&lt;/font&gt;" style="points=[[0,0],[0.25,0],[0.5,0],[0.75,0],[1,0],[1,0.25],[1,0.5],[1,0.75],[1,1],[0.75,1],[0.5,1],[0.25,1],[0,1],[0,0.75],[0,0.5],[0,0.25]];outlineConnect=0;html=1;whiteSpace=wrap;fontSize=12;fontStyle=0;shape=mxgraph.aws4.group;grIcon=mxgraph.aws4.group_security_group;grStroke=0;verticalAlign=top;align=left;spacingLeft=30;dashed=0;fillColor=#dae8fc;strokeColor=#6c8ebf;" parent="kU3VAMtRWlbckvyZx4EI-1" vertex="1">
                    <mxGeometry x="728.82" y="-450" width="251.18" height="160" as="geometry"/>
                </mxCell>
                <mxCell id="kU3VAMtRWlbckvyZx4EI-12" value="&lt;font color=&quot;#3333ff&quot;&gt;Private subnet&lt;/font&gt;" style="points=[[0,0],[0.25,0],[0.5,0],[0.75,0],[1,0],[1,0.25],[1,0.5],[1,0.75],[1,1],[0.75,1],[0.5,1],[0.25,1],[0,1],[0,0.75],[0,0.5],[0,0.25]];outlineConnect=0;html=1;whiteSpace=wrap;fontSize=12;fontStyle=0;shape=mxgraph.aws4.group;grIcon=mxgraph.aws4.group_security_group;grStroke=0;verticalAlign=top;align=left;spacingLeft=30;dashed=0;fillColor=#dae8fc;strokeColor=#6c8ebf;" parent="kU3VAMtRWlbckvyZx4EI-1" vertex="1">
                    <mxGeometry x="728.3200000000002" y="-80" width="250" height="160" as="geometry"/>
                </mxCell>
                <mxCell id="kU3VAMtRWlbckvyZx4EI-13" value="&lt;font color=&quot;#3333ff&quot;&gt;Private subnet&lt;/font&gt;" style="points=[[0,0],[0.25,0],[0.5,0],[0.75,0],[1,0],[1,0.25],[1,0.5],[1,0.75],[1,1],[0.75,1],[0.5,1],[0.25,1],[0,1],[0,0.75],[0,0.5],[0,0.25]];outlineConnect=0;html=1;whiteSpace=wrap;fontSize=12;fontStyle=0;shape=mxgraph.aws4.group;grIcon=mxgraph.aws4.group_security_group;grStroke=0;verticalAlign=top;align=left;spacingLeft=30;dashed=0;fillColor=#dae8fc;strokeColor=#6c8ebf;" parent="kU3VAMtRWlbckvyZx4EI-1" vertex="1">
                    <mxGeometry x="344.14" y="-80" width="250" height="160" as="geometry"/>
                </mxCell>
                <mxCell id="kU3VAMtRWlbckvyZx4EI-14" value="&lt;font color=&quot;#3333ff&quot;&gt;Private subnet&lt;/font&gt;" style="points=[[0,0],[0.25,0],[0.5,0],[0.75,0],[1,0],[1,0.25],[1,0.5],[1,0.75],[1,1],[0.75,1],[0.5,1],[0.25,1],[0,1],[0,0.75],[0,0.5],[0,0.25]];outlineConnect=0;html=1;whiteSpace=wrap;fontSize=12;fontStyle=0;shape=mxgraph.aws4.group;grIcon=mxgraph.aws4.group_security_group;grStroke=0;verticalAlign=top;align=left;spacingLeft=30;dashed=0;fillColor=#dae8fc;strokeColor=#6c8ebf;" parent="kU3VAMtRWlbckvyZx4EI-1" vertex="1">
                    <mxGeometry x="729.5000000000001" y="140" width="250" height="180" as="geometry"/>
                </mxCell>
                <mxCell id="kU3VAMtRWlbckvyZx4EI-15" value="&lt;font color=&quot;#3333ff&quot;&gt;Private subnet&lt;/font&gt;" style="points=[[0,0],[0.25,0],[0.5,0],[0.75,0],[1,0],[1,0.25],[1,0.5],[1,0.75],[1,1],[0.75,1],[0.5,1],[0.25,1],[0,1],[0,0.75],[0,0.5],[0,0.25]];outlineConnect=0;html=1;whiteSpace=wrap;fontSize=12;fontStyle=0;shape=mxgraph.aws4.group;grIcon=mxgraph.aws4.group_security_group;grStroke=0;verticalAlign=top;align=left;spacingLeft=30;dashed=0;fillColor=#dae8fc;strokeColor=#6c8ebf;" parent="kU3VAMtRWlbckvyZx4EI-1" vertex="1">
                    <mxGeometry x="344.5" y="140" width="250" height="180" as="geometry"/>
                </mxCell>
                <mxCell id="kU3VAMtRWlbckvyZx4EI-16" value="" style="rounded=1;arcSize=10;dashed=1;strokeColor=#ff0000;fillColor=none;gradientColor=none;dashPattern=8 4;strokeWidth=2;" parent="kU3VAMtRWlbckvyZx4EI-1" vertex="1">
                    <mxGeometry x="374.5" y="170" width="565.11" height="140" as="geometry"/>
                </mxCell>
                <mxCell id="kU3VAMtRWlbckvyZx4EI-17" value="&lt;font color=&quot;#3333ff&quot;&gt;Private subnet&lt;/font&gt;" style="points=[[0,0],[0.25,0],[0.5,0],[0.75,0],[1,0],[1,0.25],[1,0.5],[1,0.75],[1,1],[0.75,1],[0.5,1],[0.25,1],[0,1],[0,0.75],[0,0.5],[0,0.25]];outlineConnect=0;html=1;whiteSpace=wrap;fontSize=12;fontStyle=0;shape=mxgraph.aws4.group;grIcon=mxgraph.aws4.group_security_group;grStroke=0;verticalAlign=top;align=left;spacingLeft=30;dashed=0;fillColor=#dae8fc;strokeColor=#6c8ebf;" parent="kU3VAMtRWlbckvyZx4EI-1" vertex="1">
                    <mxGeometry x="730.5" y="-920" width="249.5" height="190" as="geometry"/>
                </mxCell>
                <mxCell id="kU3VAMtRWlbckvyZx4EI-18" value="&lt;font color=&quot;#3333ff&quot;&gt;Private subnet&lt;/font&gt;" style="points=[[0,0],[0.25,0],[0.5,0],[0.75,0],[1,0],[1,0.25],[1,0.5],[1,0.75],[1,1],[0.75,1],[0.5,1],[0.25,1],[0,1],[0,0.75],[0,0.5],[0,0.25]];outlineConnect=0;html=1;whiteSpace=wrap;fontSize=12;fontStyle=0;shape=mxgraph.aws4.group;grIcon=mxgraph.aws4.group_security_group;grStroke=0;verticalAlign=top;align=left;spacingLeft=30;dashed=0;fillColor=#dae8fc;strokeColor=#6c8ebf;" parent="kU3VAMtRWlbckvyZx4EI-1" vertex="1">
                    <mxGeometry x="345.5" y="-920" width="244.5" height="190" as="geometry"/>
                </mxCell>
                <mxCell id="kU3VAMtRWlbckvyZx4EI-19" value="" style="group" parent="kU3VAMtRWlbckvyZx4EI-1" vertex="1" connectable="0">
                    <mxGeometry x="385.5" y="-890" width="594" height="160" as="geometry"/>
                </mxCell>
                <mxCell id="kU3VAMtRWlbckvyZx4EI-20" value="" style="rounded=1;arcSize=10;dashed=1;strokeColor=#ff0000;fillColor=none;gradientColor=none;dashPattern=8 4;strokeWidth=2;" parent="kU3VAMtRWlbckvyZx4EI-19" vertex="1">
                    <mxGeometry width="560" height="140" as="geometry"/>
                </mxCell>
                <mxCell id="kU3VAMtRWlbckvyZx4EI-21" value="Security Group" style="text;html=1;strokeColor=none;fillColor=none;align=center;verticalAlign=middle;whiteSpace=wrap;rounded=0;fontColor=#FF0000;" parent="kU3VAMtRWlbckvyZx4EI-19" vertex="1">
                    <mxGeometry width="90" height="22" as="geometry"/>
                </mxCell>
                <mxCell id="kU3VAMtRWlbckvyZx4EI-22" value="" style="group" parent="kU3VAMtRWlbckvyZx4EI-1" vertex="1" connectable="0">
                    <mxGeometry x="1120" y="-780" width="80" height="79.48000000000002" as="geometry"/>
                </mxCell>
                <mxCell id="kU3VAMtRWlbckvyZx4EI-23" value="VPC Endpoint" style="text;html=1;strokeColor=none;fillColor=none;align=center;verticalAlign=middle;whiteSpace=wrap;rounded=0;dashed=1;fontSize=12;" parent="kU3VAMtRWlbckvyZx4EI-22" vertex="1">
                    <mxGeometry y="65.48000000000002" width="80" height="20" as="geometry"/>
                </mxCell>
                <mxCell id="kU3VAMtRWlbckvyZx4EI-24" value="" style="outlineConnect=0;fontColor=#232F3E;gradientColor=none;fillColor=#5A30B5;strokeColor=none;dashed=0;verticalLabelPosition=bottom;verticalAlign=top;align=center;html=1;fontSize=12;fontStyle=0;aspect=fixed;pointerEvents=1;shape=mxgraph.aws4.endpoints;" parent="kU3VAMtRWlbckvyZx4EI-1" vertex="1">
                    <mxGeometry x="1130.79" y="-771" width="58" height="58" as="geometry"/>
                </mxCell>
                <mxCell id="kU3VAMtRWlbckvyZx4EI-26" value="" style="rounded=0;whiteSpace=wrap;html=1;fillColor=none;" parent="kU3VAMtRWlbckvyZx4EI-1" vertex="1">
                    <mxGeometry x="879" y="-1333" width="161" height="120" as="geometry"/>
                </mxCell>
                <mxCell id="kU3VAMtRWlbckvyZx4EI-27" value="" style="rounded=0;whiteSpace=wrap;html=1;fillColor=none;" parent="kU3VAMtRWlbckvyZx4EI-1" vertex="1">
                    <mxGeometry x="514" y="-1640" width="150" height="100" as="geometry"/>
                </mxCell>
                <mxCell id="kU3VAMtRWlbckvyZx4EI-28" value="" style="rounded=0;whiteSpace=wrap;html=1;fillColor=none;" parent="kU3VAMtRWlbckvyZx4EI-1" vertex="1">
                    <mxGeometry x="772.82" y="-1333" width="100" height="120" as="geometry"/>
                </mxCell>
                <mxCell id="kU3VAMtRWlbckvyZx4EI-29" value="" style="rounded=0;whiteSpace=wrap;html=1;fillColor=none;" parent="kU3VAMtRWlbckvyZx4EI-1" vertex="1">
                    <mxGeometry x="360" y="-1333" width="238.44" height="120" as="geometry"/>
                </mxCell>
                <mxCell id="kU3VAMtRWlbckvyZx4EI-30" value="" style="rounded=0;whiteSpace=wrap;html=1;fillColor=none;" parent="kU3VAMtRWlbckvyZx4EI-1" vertex="1">
                    <mxGeometry x="1120" y="-1333" width="240" height="120" as="geometry"/>
                </mxCell>
                <mxCell id="kU3VAMtRWlbckvyZx4EI-31" value="" style="group" parent="kU3VAMtRWlbckvyZx4EI-1" vertex="1" connectable="0">
                    <mxGeometry x="1270" y="-1050" width="58" height="78" as="geometry"/>
                </mxCell>
                <mxCell id="kU3VAMtRWlbckvyZx4EI-32" value="" style="points=[[0,0,0],[0.25,0,0],[0.5,0,0],[0.75,0,0],[1,0,0],[0,1,0],[0.25,1,0],[0.5,1,0],[0.75,1,0],[1,1,0],[0,0.25,0],[0,0.5,0],[0,0.75,0],[1,0.25,0],[1,0.5,0],[1,0.75,0]];outlineConnect=0;fontColor=#232F3E;gradientColor=#60A337;gradientDirection=north;fillColor=#277116;strokeColor=#ffffff;dashed=0;verticalLabelPosition=bottom;verticalAlign=top;align=center;html=1;fontSize=12;fontStyle=0;aspect=fixed;shape=mxgraph.aws4.resourceIcon;resIcon=mxgraph.aws4.s3;" parent="kU3VAMtRWlbckvyZx4EI-31" vertex="1">
                    <mxGeometry width="58" height="58" as="geometry"/>
                </mxCell>
                <mxCell id="kU3VAMtRWlbckvyZx4EI-33" value="S3" style="text;html=1;strokeColor=none;fillColor=none;align=center;verticalAlign=middle;whiteSpace=wrap;rounded=0;" parent="kU3VAMtRWlbckvyZx4EI-31" vertex="1">
                    <mxGeometry x="9" y="58" width="40" height="20" as="geometry"/>
                </mxCell>
                <mxCell id="kU3VAMtRWlbckvyZx4EI-34" value="" style="group" parent="kU3VAMtRWlbckvyZx4EI-1" vertex="1" connectable="0">
                    <mxGeometry x="1270" y="-920" width="58" height="78" as="geometry"/>
                </mxCell>
                <mxCell id="kU3VAMtRWlbckvyZx4EI-35" value="" style="points=[[0,0,0],[0.25,0,0],[0.5,0,0],[0.75,0,0],[1,0,0],[0,1,0],[0.25,1,0],[0.5,1,0],[0.75,1,0],[1,1,0],[0,0.25,0],[0,0.5,0],[0,0.75,0],[1,0.25,0],[1,0.5,0],[1,0.75,0]];outlineConnect=0;fontColor=#232F3E;gradientColor=#60A337;gradientDirection=north;fillColor=#277116;strokeColor=#ffffff;dashed=0;verticalLabelPosition=bottom;verticalAlign=top;align=center;html=1;fontSize=12;fontStyle=0;aspect=fixed;shape=mxgraph.aws4.resourceIcon;resIcon=mxgraph.aws4.backup;" parent="kU3VAMtRWlbckvyZx4EI-34" vertex="1">
                    <mxGeometry width="58" height="58" as="geometry"/>
                </mxCell>
                <mxCell id="kU3VAMtRWlbckvyZx4EI-36" value="Backup" style="text;html=1;strokeColor=none;fillColor=none;align=center;verticalAlign=middle;whiteSpace=wrap;rounded=0;" parent="kU3VAMtRWlbckvyZx4EI-34" vertex="1">
                    <mxGeometry x="9" y="58" width="40" height="20" as="geometry"/>
                </mxCell>
                <mxCell id="kU3VAMtRWlbckvyZx4EI-37" value="" style="group" parent="kU3VAMtRWlbckvyZx4EI-1" vertex="1" connectable="0">
                    <mxGeometry x="896.7600000000001" y="-1303.5" width="58" height="78" as="geometry"/>
                </mxCell>
                <mxCell id="kU3VAMtRWlbckvyZx4EI-38" value="" style="group" parent="kU3VAMtRWlbckvyZx4EI-37" vertex="1" connectable="0">
                    <mxGeometry width="58" height="78" as="geometry"/>
                </mxCell>
                <mxCell id="kU3VAMtRWlbckvyZx4EI-39" value="" style="points=[[0,0,0],[0.25,0,0],[0.5,0,0],[0.75,0,0],[1,0,0],[0,1,0],[0.25,1,0],[0.5,1,0],[0.75,1,0],[1,1,0],[0,0.25,0],[0,0.5,0],[0,0.75,0],[1,0.25,0],[1,0.5,0],[1,0.75,0]];points=[[0,0,0],[0.25,0,0],[0.5,0,0],[0.75,0,0],[1,0,0],[0,1,0],[0.25,1,0],[0.5,1,0],[0.75,1,0],[1,1,0],[0,0.25,0],[0,0.5,0],[0,0.75,0],[1,0.25,0],[1,0.5,0],[1,0.75,0]];outlineConnect=0;fontColor=#232F3E;gradientColor=#F34482;gradientDirection=north;fillColor=#BC1356;strokeColor=#ffffff;dashed=0;verticalLabelPosition=bottom;verticalAlign=top;align=center;html=1;fontSize=12;fontStyle=0;aspect=fixed;shape=mxgraph.aws4.resourceIcon;resIcon=mxgraph.aws4.cloudwatch_2;" parent="kU3VAMtRWlbckvyZx4EI-38" vertex="1">
                    <mxGeometry width="58" height="58" as="geometry"/>
                </mxCell>
                <mxCell id="kU3VAMtRWlbckvyZx4EI-40" value="CloudWatch" style="text;html=1;strokeColor=none;fillColor=none;align=center;verticalAlign=middle;whiteSpace=wrap;rounded=0;" parent="kU3VAMtRWlbckvyZx4EI-38" vertex="1">
                    <mxGeometry x="9" y="58" width="40" height="20" as="geometry"/>
                </mxCell>
                <mxCell id="kU3VAMtRWlbckvyZx4EI-41" value="" style="group" parent="kU3VAMtRWlbckvyZx4EI-1" vertex="1" connectable="0">
                    <mxGeometry x="1136.9" y="-1307" width="58" height="78" as="geometry"/>
                </mxCell>
                <mxCell id="kU3VAMtRWlbckvyZx4EI-42" value="" style="points=[[0,0,0],[0.25,0,0],[0.5,0,0],[0.75,0,0],[1,0,0],[0,1,0],[0.25,1,0],[0.5,1,0],[0.75,1,0],[1,1,0],[0,0.25,0],[0,0.5,0],[0,0.75,0],[1,0.25,0],[1,0.5,0],[1,0.75,0]];points=[[0,0,0],[0.25,0,0],[0.5,0,0],[0.75,0,0],[1,0,0],[0,1,0],[0.25,1,0],[0.5,1,0],[0.75,1,0],[1,1,0],[0,0.25,0],[0,0.5,0],[0,0.75,0],[1,0.25,0],[1,0.5,0],[1,0.75,0]];outlineConnect=0;fontColor=#232F3E;gradientColor=#F34482;gradientDirection=north;fillColor=#BC1356;strokeColor=#ffffff;dashed=0;verticalLabelPosition=bottom;verticalAlign=top;align=center;html=1;fontSize=12;fontStyle=0;aspect=fixed;shape=mxgraph.aws4.resourceIcon;resIcon=mxgraph.aws4.cloudtrail;" parent="kU3VAMtRWlbckvyZx4EI-41" vertex="1">
                    <mxGeometry width="58" height="58" as="geometry"/>
                </mxCell>
                <mxCell id="kU3VAMtRWlbckvyZx4EI-43" value="CloudTrail" style="text;html=1;strokeColor=none;fillColor=none;align=center;verticalAlign=middle;whiteSpace=wrap;rounded=0;" parent="kU3VAMtRWlbckvyZx4EI-41" vertex="1">
                    <mxGeometry x="9" y="58" width="40" height="20" as="geometry"/>
                </mxCell>
                <mxCell id="kU3VAMtRWlbckvyZx4EI-44" value="" style="group" parent="kU3VAMtRWlbckvyZx4EI-1" vertex="1" connectable="0">
                    <mxGeometry x="965.5" y="-1303.5" width="58" height="78" as="geometry"/>
                </mxCell>
                <mxCell id="kU3VAMtRWlbckvyZx4EI-45" value="" style="points=[[0,0,0],[0.25,0,0],[0.5,0,0],[0.75,0,0],[1,0,0],[0,1,0],[0.25,1,0],[0.5,1,0],[0.75,1,0],[1,1,0],[0,0.25,0],[0,0.5,0],[0,0.75,0],[1,0.25,0],[1,0.5,0],[1,0.75,0]];outlineConnect=0;fontColor=#232F3E;gradientColor=#F34482;gradientDirection=north;fillColor=#BC1356;strokeColor=#ffffff;dashed=0;verticalLabelPosition=bottom;verticalAlign=top;align=center;html=1;fontSize=12;fontStyle=0;aspect=fixed;shape=mxgraph.aws4.resourceIcon;resIcon=mxgraph.aws4.sns;" parent="kU3VAMtRWlbckvyZx4EI-44" vertex="1">
                    <mxGeometry width="58" height="58" as="geometry"/>
                </mxCell>
                <mxCell id="kU3VAMtRWlbckvyZx4EI-46" value="SNS" style="text;html=1;strokeColor=none;fillColor=none;align=center;verticalAlign=middle;whiteSpace=wrap;rounded=0;" parent="kU3VAMtRWlbckvyZx4EI-44" vertex="1">
                    <mxGeometry x="9" y="58" width="40" height="20" as="geometry"/>
                </mxCell>
                <mxCell id="kU3VAMtRWlbckvyZx4EI-47" value="" style="group" parent="kU3VAMtRWlbckvyZx4EI-1" vertex="1" connectable="0">
                    <mxGeometry x="634.93" y="-959.48" width="58" height="80.50999999999999" as="geometry"/>
                </mxCell>
                <mxCell id="kU3VAMtRWlbckvyZx4EI-48" value="" style="group" parent="kU3VAMtRWlbckvyZx4EI-47" vertex="1" connectable="0">
                    <mxGeometry y="-24.99" width="58" height="80.50999999999999" as="geometry"/>
                </mxCell>
                <mxCell id="kU3VAMtRWlbckvyZx4EI-49" value="" style="outlineConnect=0;dashed=0;verticalLabelPosition=bottom;verticalAlign=top;align=center;html=1;shape=mxgraph.aws3.application_load_balancer;fillColor=#F58536;gradientColor=none;aspect=fixed;" parent="kU3VAMtRWlbckvyZx4EI-48" vertex="1">
                    <mxGeometry width="58" height="60.51" as="geometry"/>
                </mxCell>
                <mxCell id="kU3VAMtRWlbckvyZx4EI-50" value="ALB" style="text;html=1;strokeColor=none;fillColor=none;align=center;verticalAlign=middle;whiteSpace=wrap;rounded=0;" parent="kU3VAMtRWlbckvyZx4EI-48" vertex="1">
                    <mxGeometry x="9" y="60.50999999999999" width="40" height="20" as="geometry"/>
                </mxCell>
                <mxCell id="kU3VAMtRWlbckvyZx4EI-51" value="" style="endArrow=classic;html=1;entryX=0;entryY=0.5;entryDx=0;entryDy=0;entryPerimeter=0;fillColor=#d5e8d4;strokeColor=#82b366;edgeStyle=elbowEdgeStyle;startArrow=classic;startFill=1;" parent="kU3VAMtRWlbckvyZx4EI-1" source="kU3VAMtRWlbckvyZx4EI-24" target="kU3VAMtRWlbckvyZx4EI-32" edge="1">
                    <mxGeometry width="50" height="50" relative="1" as="geometry">
                        <mxPoint x="1249" y="-900.2061538461539" as="sourcePoint"/>
                        <mxPoint x="1210" y="-830" as="targetPoint"/>
                        <Array as="points">
                            <mxPoint x="1200" y="-830"/>
                        </Array>
                    </mxGeometry>
                </mxCell>
                <mxCell id="kU3VAMtRWlbckvyZx4EI-52" value="" style="group" parent="kU3VAMtRWlbckvyZx4EI-1" vertex="1" connectable="0">
                    <mxGeometry x="220" y="-1307.5" width="50" height="78" as="geometry"/>
                </mxCell>
                <mxCell id="kU3VAMtRWlbckvyZx4EI-53" value="" style="group" parent="kU3VAMtRWlbckvyZx4EI-52" vertex="1" connectable="0">
                    <mxGeometry x="-8" width="58" height="78" as="geometry"/>
                </mxCell>
                <mxCell id="kU3VAMtRWlbckvyZx4EI-54" value="IAM" style="text;html=1;strokeColor=none;fillColor=none;align=center;verticalAlign=middle;whiteSpace=wrap;rounded=0;" parent="kU3VAMtRWlbckvyZx4EI-53" vertex="1">
                    <mxGeometry x="8" y="58" width="40" height="20" as="geometry"/>
                </mxCell>
                <mxCell id="kU3VAMtRWlbckvyZx4EI-55" value="" style="points=[[0,0,0],[0.25,0,0],[0.5,0,0],[0.75,0,0],[1,0,0],[0,1,0],[0.25,1,0],[0.5,1,0],[0.75,1,0],[1,1,0],[0,0.25,0],[0,0.5,0],[0,0.75,0],[1,0.25,0],[1,0.5,0],[1,0.75,0]];outlineConnect=0;fontColor=#232F3E;gradientColor=#F54749;gradientDirection=north;fillColor=#C7131F;strokeColor=#ffffff;dashed=0;verticalLabelPosition=bottom;verticalAlign=top;align=center;html=1;fontSize=12;fontStyle=0;aspect=fixed;shape=mxgraph.aws4.resourceIcon;resIcon=mxgraph.aws4.identity_and_access_management;" parent="kU3VAMtRWlbckvyZx4EI-53" vertex="1">
                    <mxGeometry width="58" height="58" as="geometry"/>
                </mxCell>
                <mxCell id="kU3VAMtRWlbckvyZx4EI-56" value="監査・構成情報管理" style="text;html=1;align=center;verticalAlign=middle;whiteSpace=wrap;rounded=0;fillColor=#ffffff;strokeColor=#000000;" parent="kU3VAMtRWlbckvyZx4EI-1" vertex="1">
                    <mxGeometry x="1125" y="-1350" width="120.21" height="31" as="geometry"/>
                </mxCell>
                <mxCell id="kU3VAMtRWlbckvyZx4EI-57" value="" style="group" parent="kU3VAMtRWlbckvyZx4EI-1" vertex="1" connectable="0">
                    <mxGeometry x="1207.9" y="-1307.5" width="58" height="78" as="geometry"/>
                </mxCell>
                <mxCell id="kU3VAMtRWlbckvyZx4EI-58" value="" style="points=[[0,0,0],[0.25,0,0],[0.5,0,0],[0.75,0,0],[1,0,0],[0,1,0],[0.25,1,0],[0.5,1,0],[0.75,1,0],[1,1,0],[0,0.25,0],[0,0.5,0],[0,0.75,0],[1,0.25,0],[1,0.5,0],[1,0.75,0]];points=[[0,0,0],[0.25,0,0],[0.5,0,0],[0.75,0,0],[1,0,0],[0,1,0],[0.25,1,0],[0.5,1,0],[0.75,1,0],[1,1,0],[0,0.25,0],[0,0.5,0],[0,0.75,0],[1,0.25,0],[1,0.5,0],[1,0.75,0]];outlineConnect=0;fontColor=#232F3E;gradientColor=#F34482;gradientDirection=north;fillColor=#BC1356;strokeColor=#ffffff;dashed=0;verticalLabelPosition=bottom;verticalAlign=top;align=center;html=1;fontSize=12;fontStyle=0;aspect=fixed;shape=mxgraph.aws4.resourceIcon;resIcon=mxgraph.aws4.config;" parent="kU3VAMtRWlbckvyZx4EI-57" vertex="1">
                    <mxGeometry width="58" height="58" as="geometry"/>
                </mxCell>
                <mxCell id="kU3VAMtRWlbckvyZx4EI-59" value="Config" style="text;html=1;strokeColor=none;fillColor=none;align=center;verticalAlign=middle;whiteSpace=wrap;rounded=0;" parent="kU3VAMtRWlbckvyZx4EI-57" vertex="1">
                    <mxGeometry x="9" y="58" width="40" height="20" as="geometry"/>
                </mxCell>
                <mxCell id="kU3VAMtRWlbckvyZx4EI-60" value="監視" style="text;html=1;align=center;verticalAlign=middle;whiteSpace=wrap;rounded=0;fillColor=#ffffff;strokeColor=#000000;" parent="kU3VAMtRWlbckvyZx4EI-1" vertex="1">
                    <mxGeometry x="882.2500000000001" y="-1346.5" width="84" height="31" as="geometry"/>
                </mxCell>
                <mxCell id="kU3VAMtRWlbckvyZx4EI-61" value="" style="group" parent="kU3VAMtRWlbckvyZx4EI-1" vertex="1" connectable="0">
                    <mxGeometry x="508.44000000000005" y="-1307" width="90" height="85" as="geometry"/>
                </mxCell>
                <mxCell id="kU3VAMtRWlbckvyZx4EI-62" value="" style="group" parent="kU3VAMtRWlbckvyZx4EI-61" vertex="1" connectable="0">
                    <mxGeometry width="90" height="85" as="geometry"/>
                </mxCell>
                <mxCell id="kU3VAMtRWlbckvyZx4EI-63" value="" style="points=[[0,0,0],[0.25,0,0],[0.5,0,0],[0.75,0,0],[1,0,0],[0,1,0],[0.25,1,0],[0.5,1,0],[0.75,1,0],[1,1,0],[0,0.25,0],[0,0.5,0],[0,0.75,0],[1,0.25,0],[1,0.5,0],[1,0.75,0]];outlineConnect=0;fontColor=#232F3E;gradientColor=#F54749;gradientDirection=north;fillColor=#C7131F;strokeColor=#ffffff;dashed=0;verticalLabelPosition=bottom;verticalAlign=top;align=center;html=1;fontSize=12;fontStyle=0;aspect=fixed;shape=mxgraph.aws4.resourceIcon;resIcon=mxgraph.aws4.secrets_manager;" parent="kU3VAMtRWlbckvyZx4EI-62" vertex="1">
                    <mxGeometry x="16" width="58" height="58" as="geometry"/>
                </mxCell>
                <mxCell id="kU3VAMtRWlbckvyZx4EI-64" value="Secrets Manager" style="text;html=1;strokeColor=none;fillColor=none;align=center;verticalAlign=middle;whiteSpace=wrap;rounded=0;" parent="kU3VAMtRWlbckvyZx4EI-62" vertex="1">
                    <mxGeometry y="65" width="90" height="20" as="geometry"/>
                </mxCell>
                <mxCell id="kU3VAMtRWlbckvyZx4EI-65" value="" style="group" parent="kU3VAMtRWlbckvyZx4EI-1" vertex="1" connectable="0">
                    <mxGeometry x="450.44" y="-1307" width="58" height="85" as="geometry"/>
                </mxCell>
                <mxCell id="kU3VAMtRWlbckvyZx4EI-66" value="" style="points=[[0,0,0],[0.25,0,0],[0.5,0,0],[0.75,0,0],[1,0,0],[0,1,0],[0.25,1,0],[0.5,1,0],[0.75,1,0],[1,1,0],[0,0.25,0],[0,0.5,0],[0,0.75,0],[1,0.25,0],[1,0.5,0],[1,0.75,0]];outlineConnect=0;fontColor=#232F3E;gradientColor=#F54749;gradientDirection=north;fillColor=#C7131F;strokeColor=#ffffff;dashed=0;verticalLabelPosition=bottom;verticalAlign=top;align=center;html=1;fontSize=12;fontStyle=0;aspect=fixed;shape=mxgraph.aws4.resourceIcon;resIcon=mxgraph.aws4.certificate_manager_3;" parent="kU3VAMtRWlbckvyZx4EI-65" vertex="1">
                    <mxGeometry width="58" height="58" as="geometry"/>
                </mxCell>
                <mxCell id="kU3VAMtRWlbckvyZx4EI-67" value="ACM" style="text;html=1;strokeColor=none;fillColor=none;align=center;verticalAlign=middle;whiteSpace=wrap;rounded=0;fontSize=12;" parent="kU3VAMtRWlbckvyZx4EI-65" vertex="1">
                    <mxGeometry x="4" y="58" width="50" height="20" as="geometry"/>
                </mxCell>
                <mxCell id="kU3VAMtRWlbckvyZx4EI-68" value="" style="group" parent="kU3VAMtRWlbckvyZx4EI-1" vertex="1" connectable="0">
                    <mxGeometry x="378.44" y="-1307.5" width="58" height="78" as="geometry"/>
                </mxCell>
                <mxCell id="kU3VAMtRWlbckvyZx4EI-69" value="" style="group" parent="kU3VAMtRWlbckvyZx4EI-68" vertex="1" connectable="0">
                    <mxGeometry width="58" height="78" as="geometry"/>
                </mxCell>
                <mxCell id="kU3VAMtRWlbckvyZx4EI-70" value="" style="points=[[0,0,0],[0.25,0,0],[0.5,0,0],[0.75,0,0],[1,0,0],[0,1,0],[0.25,1,0],[0.5,1,0],[0.75,1,0],[1,1,0],[0,0.25,0],[0,0.5,0],[0,0.75,0],[1,0.25,0],[1,0.5,0],[1,0.75,0]];outlineConnect=0;fontColor=#232F3E;gradientColor=#F54749;gradientDirection=north;fillColor=#C7131F;strokeColor=#ffffff;dashed=0;verticalLabelPosition=bottom;verticalAlign=top;align=center;html=1;fontSize=12;fontStyle=0;aspect=fixed;shape=mxgraph.aws4.resourceIcon;resIcon=mxgraph.aws4.key_management_service;" parent="kU3VAMtRWlbckvyZx4EI-69" vertex="1">
                    <mxGeometry width="58" height="58" as="geometry"/>
                </mxCell>
                <mxCell id="kU3VAMtRWlbckvyZx4EI-71" value="KMS" style="text;html=1;strokeColor=none;fillColor=none;align=center;verticalAlign=middle;whiteSpace=wrap;rounded=0;" parent="kU3VAMtRWlbckvyZx4EI-69" vertex="1">
                    <mxGeometry x="9" y="58" width="40" height="20" as="geometry"/>
                </mxCell>
                <mxCell id="kU3VAMtRWlbckvyZx4EI-72" value="鍵・証明書・クレンデンシャル情報管理" style="text;html=1;align=center;verticalAlign=middle;whiteSpace=wrap;rounded=0;fillColor=#ffffff;strokeColor=#000000;" parent="kU3VAMtRWlbckvyZx4EI-1" vertex="1">
                    <mxGeometry x="363.56" y="-1350" width="226.44" height="31" as="geometry"/>
                </mxCell>
                <mxCell id="kU3VAMtRWlbckvyZx4EI-73" value="Osaka Region" style="points=[[0,0],[0.25,0],[0.5,0],[0.75,0],[1,0],[1,0.25],[1,0.5],[1,0.75],[1,1],[0.75,1],[0.5,1],[0.25,1],[0,1],[0,0.75],[0,0.5],[0,0.25]];outlineConnect=0;gradientColor=none;html=1;whiteSpace=wrap;fontSize=12;fontStyle=0;shape=mxgraph.aws4.group;grIcon=mxgraph.aws4.group_region;strokeColor=#147EBA;fillColor=none;verticalAlign=top;align=left;spacingLeft=30;fontColor=#147EBA;dashed=1;" parent="kU3VAMtRWlbckvyZx4EI-1" vertex="1">
                    <mxGeometry x="1450" y="-1120" width="170" height="470" as="geometry"/>
                </mxCell>
                <mxCell id="kU3VAMtRWlbckvyZx4EI-80" value="" style="group" parent="kU3VAMtRWlbckvyZx4EI-1" vertex="1" connectable="0">
                    <mxGeometry x="641.32" y="-1080" width="58" height="78" as="geometry"/>
                </mxCell>
                <mxCell id="kU3VAMtRWlbckvyZx4EI-81" value="" style="points=[[0,0,0],[0.25,0,0],[0.5,0,0],[0.75,0,0],[1,0,0],[0,1,0],[0.25,1,0],[0.5,1,0],[0.75,1,0],[1,1,0],[0,0.25,0],[0,0.5,0],[0,0.75,0],[1,0.25,0],[1,0.5,0],[1,0.75,0]];outlineConnect=0;fontColor=#232F3E;gradientColor=#945DF2;gradientDirection=north;fillColor=#5A30B5;strokeColor=#ffffff;dashed=0;verticalLabelPosition=bottom;verticalAlign=top;align=center;html=1;fontSize=12;fontStyle=0;aspect=fixed;shape=mxgraph.aws4.resourceIcon;resIcon=mxgraph.aws4.transit_gateway;" parent="kU3VAMtRWlbckvyZx4EI-80" vertex="1">
                    <mxGeometry x="-6.32" y="-30" width="58" height="58" as="geometry"/>
                </mxCell>
                <mxCell id="kU3VAMtRWlbckvyZx4EI-82" value="TransitGateway" style="text;html=1;strokeColor=none;fillColor=none;align=center;verticalAlign=middle;whiteSpace=wrap;rounded=0;" parent="kU3VAMtRWlbckvyZx4EI-80" vertex="1">
                    <mxGeometry x="2.6799999999999997" y="29" width="40" height="20" as="geometry"/>
                </mxCell>
                <mxCell id="kU3VAMtRWlbckvyZx4EI-83" value="" style="endArrow=classic;html=1;fillColor=#dae8fc;strokeColor=#6c8ebf;edgeStyle=orthogonalEdgeStyle;elbow=vertical;rounded=1;entryX=0;entryY=0.5;entryDx=0;entryDy=0;entryPerimeter=0;startArrow=classic;startFill=1;exitX=1;exitY=0.25;exitDx=0;exitDy=0;" parent="kU3VAMtRWlbckvyZx4EI-1" source="kU3VAMtRWlbckvyZx4EI-168" target="kU3VAMtRWlbckvyZx4EI-35" edge="1">
                    <mxGeometry width="50" height="50" relative="1" as="geometry">
                        <mxPoint x="490" y="-270" as="sourcePoint"/>
                        <mxPoint x="1240" y="-890" as="targetPoint"/>
                        <Array as="points">
                            <mxPoint x="496" y="-720"/>
                            <mxPoint x="1000" y="-720"/>
                            <mxPoint x="1000" y="-891"/>
                        </Array>
                    </mxGeometry>
                </mxCell>
                <mxCell id="kU3VAMtRWlbckvyZx4EI-84" value="" style="endArrow=classic;html=1;entryX=0;entryY=0.5;entryDx=0;entryDy=0;fillColor=#dae8fc;strokeColor=#6c8ebf;entryPerimeter=0;edgeStyle=orthogonalEdgeStyle;elbow=vertical;rounded=1;startArrow=classic;startFill=1;exitX=1;exitY=0.5;exitDx=0;exitDy=0;exitPerimeter=0;" parent="kU3VAMtRWlbckvyZx4EI-1" source="kU3VAMtRWlbckvyZx4EI-173" target="kU3VAMtRWlbckvyZx4EI-35" edge="1">
                    <mxGeometry width="50" height="50" relative="1" as="geometry">
                        <mxPoint x="880" y="-250" as="sourcePoint"/>
                        <mxPoint x="1260" y="-881" as="targetPoint"/>
                        <Array as="points">
                            <mxPoint x="1000" y="-831"/>
                            <mxPoint x="1000" y="-891"/>
                        </Array>
                    </mxGeometry>
                </mxCell>
                <mxCell id="kU3VAMtRWlbckvyZx4EI-85" value="" style="endArrow=classic;html=1;entryX=0;entryY=0.5;entryDx=0;entryDy=0;fillColor=#dae8fc;strokeColor=#6c8ebf;entryPerimeter=0;edgeStyle=orthogonalEdgeStyle;elbow=vertical;rounded=1;startArrow=classic;startFill=1;exitX=1;exitY=0.1;exitDx=0;exitDy=0;exitPerimeter=0;" parent="kU3VAMtRWlbckvyZx4EI-1" source="kU3VAMtRWlbckvyZx4EI-152" target="kU3VAMtRWlbckvyZx4EI-35" edge="1">
                    <mxGeometry width="50" height="50" relative="1" as="geometry">
                        <mxPoint x="500" y="426" as="sourcePoint"/>
                        <mxPoint x="1260" y="-881" as="targetPoint"/>
                        <Array as="points">
                            <mxPoint x="560" y="197"/>
                            <mxPoint x="560" y="110"/>
                            <mxPoint x="1000" y="110"/>
                            <mxPoint x="1000" y="-891"/>
                        </Array>
                    </mxGeometry>
                </mxCell>
                <mxCell id="kU3VAMtRWlbckvyZx4EI-86" value="" style="endArrow=classic;html=1;fillColor=#d5e8d4;strokeColor=#82b366;edgeStyle=orthogonalEdgeStyle;rounded=1;startArrow=classic;startFill=1;entryX=0.25;entryY=1;entryDx=0;entryDy=0;" parent="kU3VAMtRWlbckvyZx4EI-1" source="kU3VAMtRWlbckvyZx4EI-196" target="kU3VAMtRWlbckvyZx4EI-23" edge="1">
                    <mxGeometry width="50" height="50" relative="1" as="geometry">
                        <mxPoint x="718" y="-210" as="sourcePoint"/>
                        <mxPoint x="1140" y="-690" as="targetPoint"/>
                        <Array as="points">
                            <mxPoint x="620" y="-360"/>
                            <mxPoint x="620" y="-450"/>
                            <mxPoint x="1140" y="-450"/>
                        </Array>
                    </mxGeometry>
                </mxCell>
                <mxCell id="kU3VAMtRWlbckvyZx4EI-89" value="" style="rounded=1;arcSize=10;dashed=1;strokeColor=#ff0000;fillColor=none;gradientColor=none;dashPattern=8 4;strokeWidth=2;" parent="kU3VAMtRWlbckvyZx4EI-1" vertex="1">
                    <mxGeometry x="613.93" y="-1000" width="100" height="100" as="geometry"/>
                </mxCell>
                <mxCell id="kU3VAMtRWlbckvyZx4EI-90" value="Security Group" style="text;html=1;strokeColor=none;fillColor=none;align=center;verticalAlign=middle;whiteSpace=wrap;rounded=0;fontColor=#FF0000;" parent="kU3VAMtRWlbckvyZx4EI-1" vertex="1">
                    <mxGeometry x="618.1400000000001" y="-1002" width="91.58333333333333" height="22" as="geometry"/>
                </mxCell>
                <mxCell id="kU3VAMtRWlbckvyZx4EI-93" value="" style="group" parent="kU3VAMtRWlbckvyZx4EI-1" vertex="1" connectable="0">
                    <mxGeometry x="794" y="-1303" width="58" height="80.52" as="geometry"/>
                </mxCell>
                <mxCell id="kU3VAMtRWlbckvyZx4EI-94" value="" style="outlineConnect=0;dashed=0;verticalLabelPosition=bottom;verticalAlign=top;align=center;html=1;shape=mxgraph.aws3.lambda_function;fillColor=#F58534;gradientColor=none;aspect=fixed;" parent="kU3VAMtRWlbckvyZx4EI-93" vertex="1">
                    <mxGeometry width="58" height="60.52" as="geometry"/>
                </mxCell>
                <mxCell id="kU3VAMtRWlbckvyZx4EI-95" value="Lambda" style="text;html=1;strokeColor=none;fillColor=none;align=center;verticalAlign=middle;whiteSpace=wrap;rounded=0;" parent="kU3VAMtRWlbckvyZx4EI-93" vertex="1">
                    <mxGeometry x="9" y="60.52" width="40" height="19.48" as="geometry"/>
                </mxCell>
                <mxCell id="kU3VAMtRWlbckvyZx4EI-96" value="" style="rounded=0;whiteSpace=wrap;html=1;fillColor=none;" parent="kU3VAMtRWlbckvyZx4EI-1" vertex="1">
                    <mxGeometry x="190" y="-1333" width="100" height="120" as="geometry"/>
                </mxCell>
                <mxCell id="kU3VAMtRWlbckvyZx4EI-97" value="ユーザ管理" style="text;html=1;align=center;verticalAlign=middle;whiteSpace=wrap;rounded=0;fillColor=#ffffff;strokeColor=#000000;" parent="kU3VAMtRWlbckvyZx4EI-1" vertex="1">
                    <mxGeometry x="194.0000000000001" y="-1350" width="84" height="31" as="geometry"/>
                </mxCell>
                <mxCell id="kU3VAMtRWlbckvyZx4EI-98" value="運用自動化" style="text;html=1;align=center;verticalAlign=middle;whiteSpace=wrap;rounded=0;fillColor=#ffffff;strokeColor=#000000;" parent="kU3VAMtRWlbckvyZx4EI-1" vertex="1">
                    <mxGeometry x="776.8200000000002" y="-1350" width="84" height="31" as="geometry"/>
                </mxCell>
                <mxCell id="kU3VAMtRWlbckvyZx4EI-99" value="" style="endArrow=classic;html=1;exitX=0.5;exitY=0;exitDx=0;exitDy=0;startArrow=classic;startFill=1;" parent="kU3VAMtRWlbckvyZx4EI-1" source="kU3VAMtRWlbckvyZx4EI-82" target="kU3VAMtRWlbckvyZx4EI-90" edge="1">
                    <mxGeometry width="50" height="50" relative="1" as="geometry">
                        <mxPoint x="690" y="-1210" as="sourcePoint"/>
                        <mxPoint x="740" y="-1260" as="targetPoint"/>
                    </mxGeometry>
                </mxCell>
                <mxCell id="kU3VAMtRWlbckvyZx4EI-100" value="" style="endArrow=classic;html=1;exitX=0.468;exitY=0.996;exitDx=0;exitDy=0;rounded=1;edgeStyle=orthogonalEdgeStyle;exitPerimeter=0;startArrow=classic;startFill=1;entryX=0.5;entryY=0;entryDx=0;entryDy=0;entryPerimeter=0;" parent="kU3VAMtRWlbckvyZx4EI-1" source="kU3VAMtRWlbckvyZx4EI-89" target="kU3VAMtRWlbckvyZx4EI-196" edge="1">
                    <mxGeometry width="50" height="50" relative="1" as="geometry">
                        <mxPoint x="674" y="-1041" as="sourcePoint"/>
                        <mxPoint x="490" y="-380" as="targetPoint"/>
                        <Array as="points">
                            <mxPoint x="661" y="-470"/>
                            <mxPoint x="481" y="-470"/>
                        </Array>
                    </mxGeometry>
                </mxCell>
                <mxCell id="kU3VAMtRWlbckvyZx4EI-101" value="" style="endArrow=classic;html=1;rounded=1;edgeStyle=orthogonalEdgeStyle;startArrow=classic;startFill=1;entryX=0;entryY=0.5;entryDx=0;entryDy=0;entryPerimeter=0;" parent="kU3VAMtRWlbckvyZx4EI-1" target="kU3VAMtRWlbckvyZx4EI-196" edge="1">
                    <mxGeometry width="50" height="50" relative="1" as="geometry">
                        <mxPoint x="440" y="-10" as="sourcePoint"/>
                        <mxPoint x="477.61" y="-250" as="targetPoint"/>
                        <Array as="points">
                            <mxPoint x="340" y="-10"/>
                            <mxPoint x="340" y="-360"/>
                        </Array>
                    </mxGeometry>
                </mxCell>
                <mxCell id="kU3VAMtRWlbckvyZx4EI-102" value="" style="endArrow=classic;html=1;startArrow=classic;startFill=1;entryX=0.25;entryY=0;entryDx=0;entryDy=0;entryPerimeter=0;edgeStyle=orthogonalEdgeStyle;exitX=0.25;exitY=1;exitDx=0;exitDy=0;" parent="kU3VAMtRWlbckvyZx4EI-1" source="kU3VAMtRWlbckvyZx4EI-131" target="kU3VAMtRWlbckvyZx4EI-81" edge="1">
                    <mxGeometry width="50" height="50" relative="1" as="geometry">
                        <mxPoint x="664" y="-1560" as="sourcePoint"/>
                        <mxPoint x="664.2141944444445" y="-1238.24" as="targetPoint"/>
                        <Array as="points"/>
                    </mxGeometry>
                </mxCell>
                <mxCell id="kU3VAMtRWlbckvyZx4EI-103" value="" style="endArrow=classic;html=1;rounded=1;edgeStyle=orthogonalEdgeStyle;startArrow=classic;startFill=1;exitX=1;exitY=1;exitDx=0;exitDy=0;" parent="kU3VAMtRWlbckvyZx4EI-1" source="kU3VAMtRWlbckvyZx4EI-155" edge="1">
                    <mxGeometry width="50" height="50" relative="1" as="geometry">
                        <mxPoint x="558.61" y="-65.75" as="sourcePoint"/>
                        <mxPoint x="510" y="-340" as="targetPoint"/>
                        <Array as="points">
                            <mxPoint x="466" y="110"/>
                            <mxPoint x="560" y="110"/>
                            <mxPoint x="560" y="-340"/>
                        </Array>
                    </mxGeometry>
                </mxCell>
                <mxCell id="kU3VAMtRWlbckvyZx4EI-104" value="" style="endArrow=classic;html=1;exitX=0;exitY=0.25;exitDx=0;exitDy=0;rounded=1;edgeStyle=orthogonalEdgeStyle;exitPerimeter=0;startArrow=classic;startFill=1;strokeColor=#3333FF;entryX=0.211;entryY=0.357;entryDx=0;entryDy=0;entryPerimeter=0;" parent="kU3VAMtRWlbckvyZx4EI-1" source="kU3VAMtRWlbckvyZx4EI-81" target="kU3VAMtRWlbckvyZx4EI-20" edge="1">
                    <mxGeometry width="50" height="50" relative="1" as="geometry">
                        <mxPoint x="645" y="-1056.5000000000002" as="sourcePoint"/>
                        <mxPoint x="510" y="-470" as="targetPoint"/>
                        <Array as="points">
                            <mxPoint x="600" y="-1095"/>
                            <mxPoint x="600" y="-840"/>
                        </Array>
                    </mxGeometry>
                </mxCell>
                <mxCell id="kU3VAMtRWlbckvyZx4EI-105" value="" style="endArrow=classic;html=1;exitX=0;exitY=0.75;exitDx=0;exitDy=0;rounded=1;edgeStyle=orthogonalEdgeStyle;exitPerimeter=0;startArrow=classic;startFill=1;strokeColor=#3333FF;entryX=0;entryY=0.5;entryDx=0;entryDy=0;entryPerimeter=0;" parent="kU3VAMtRWlbckvyZx4EI-1" source="kU3VAMtRWlbckvyZx4EI-167" target="kU3VAMtRWlbckvyZx4EI-152" edge="1">
                    <mxGeometry width="50" height="50" relative="1" as="geometry">
                        <mxPoint x="632" y="-1175.5000000000002" as="sourcePoint"/>
                        <mxPoint x="447" y="450" as="targetPoint"/>
                        <Array as="points">
                            <mxPoint x="300" y="-816"/>
                            <mxPoint x="300" y="223"/>
                        </Array>
                    </mxGeometry>
                </mxCell>
                <mxCell id="kU3VAMtRWlbckvyZx4EI-106" value="" style="points=[];aspect=fixed;html=1;align=center;shadow=0;dashed=0;image;image=img/lib/allied_telesis/computer_and_terminals/Personal_Computer.svg;" parent="kU3VAMtRWlbckvyZx4EI-1" vertex="1">
                    <mxGeometry x="546" y="-1611.8" width="45.6" height="61.800000000000004" as="geometry"/>
                </mxCell>
                <mxCell id="kU3VAMtRWlbckvyZx4EI-107" value="業務端末" style="text;html=1;strokeColor=none;fillColor=none;align=center;verticalAlign=middle;whiteSpace=wrap;rounded=0;" parent="kU3VAMtRWlbckvyZx4EI-1" vertex="1">
                    <mxGeometry x="590" y="-1570" width="64" height="20" as="geometry"/>
                </mxCell>
                <mxCell id="kU3VAMtRWlbckvyZx4EI-108" value="" style="points=[];aspect=fixed;html=1;align=center;shadow=0;dashed=0;image;image=img/lib/allied_telesis/storage/Datacenter_Server_Rack_EoR.svg;" parent="kU3VAMtRWlbckvyZx4EI-1" vertex="1">
                    <mxGeometry x="683.4200000000001" y="-1630" width="39.58" height="80" as="geometry"/>
                </mxCell>
                <mxCell id="kU3VAMtRWlbckvyZx4EI-109" value="他システム" style="text;html=1;strokeColor=none;fillColor=none;align=center;verticalAlign=middle;whiteSpace=wrap;rounded=0;" parent="kU3VAMtRWlbckvyZx4EI-1" vertex="1">
                    <mxGeometry x="718" y="-1570" width="83" height="20" as="geometry"/>
                </mxCell>
                <mxCell id="kU3VAMtRWlbckvyZx4EI-110" value="" style="rounded=0;whiteSpace=wrap;html=1;fillColor=none;" parent="kU3VAMtRWlbckvyZx4EI-1" vertex="1">
                    <mxGeometry x="669.44" y="-1640" width="144.56" height="100" as="geometry"/>
                </mxCell>
                <mxCell id="kU3VAMtRWlbckvyZx4EI-111" value="" style="endArrow=classic;html=1;startArrow=classic;startFill=1;entryX=0.75;entryY=0;entryDx=0;entryDy=0;entryPerimeter=0;exitX=0.75;exitY=1;exitDx=0;exitDy=0;strokeColor=#3333FF;edgeStyle=orthogonalEdgeStyle;" parent="kU3VAMtRWlbckvyZx4EI-1" source="kU3VAMtRWlbckvyZx4EI-131" target="kU3VAMtRWlbckvyZx4EI-81" edge="1">
                    <mxGeometry width="50" height="50" relative="1" as="geometry">
                        <mxPoint x="611.7000000000003" y="-1538.9" as="sourcePoint"/>
                        <mxPoint x="674.0000000000002" y="-1100" as="targetPoint"/>
                        <Array as="points">
                            <mxPoint x="691" y="-1280"/>
                            <mxPoint x="679" y="-1280"/>
                        </Array>
                    </mxGeometry>
                </mxCell>
                <mxCell id="kU3VAMtRWlbckvyZx4EI-124" value="" style="outlineConnect=0;fontColor=#232F3E;gradientColor=none;fillColor=#5A30B5;strokeColor=none;dashed=0;verticalLabelPosition=bottom;verticalAlign=top;align=center;html=1;fontSize=12;fontStyle=0;aspect=fixed;pointerEvents=1;shape=mxgraph.aws4.endpoints;" parent="kU3VAMtRWlbckvyZx4EI-1" vertex="1">
                    <mxGeometry x="381.00000000000006" y="-1110" width="58" height="58" as="geometry"/>
                </mxCell>
                <mxCell id="kU3VAMtRWlbckvyZx4EI-125" value="VPC Endpoint" style="text;html=1;strokeColor=none;fillColor=none;align=center;verticalAlign=middle;whiteSpace=wrap;rounded=0;dashed=1;fontSize=12;" parent="kU3VAMtRWlbckvyZx4EI-1" vertex="1">
                    <mxGeometry x="370.00000000000006" y="-1050.26" width="80" height="20" as="geometry"/>
                </mxCell>
                <mxCell id="kU3VAMtRWlbckvyZx4EI-130" value="" style="points=[[0,0,0],[0.25,0,0],[0.5,0,0],[0.75,0,0],[1,0,0],[0,1,0],[0.25,1,0],[0.5,1,0],[0.75,1,0],[1,1,0],[0,0.25,0],[0,0.5,0],[0,0.75,0],[1,0.25,0],[1,0.5,0],[1,0.75,0]];outlineConnect=0;fontColor=#232F3E;gradientColor=#945DF2;gradientDirection=north;fillColor=#5A30B5;strokeColor=#ffffff;dashed=0;verticalLabelPosition=bottom;verticalAlign=top;align=center;html=1;fontSize=12;fontStyle=0;aspect=fixed;shape=mxgraph.aws4.resourceIcon;resIcon=mxgraph.aws4.direct_connect;" parent="kU3VAMtRWlbckvyZx4EI-1" vertex="1">
                    <mxGeometry x="634.93" y="-1530" width="58" height="58" as="geometry"/>
                </mxCell>
                <mxCell id="kU3VAMtRWlbckvyZx4EI-131" value="DirectConnect" style="text;html=1;strokeColor=none;fillColor=none;align=center;verticalAlign=middle;whiteSpace=wrap;rounded=0;dashed=1;fontSize=12;" parent="kU3VAMtRWlbckvyZx4EI-1" vertex="1">
                    <mxGeometry x="608.93" y="-1472" width="110" height="20" as="geometry"/>
                </mxCell>
                <mxCell id="kU3VAMtRWlbckvyZx4EI-132" value="" style="endArrow=classic;html=1;startArrow=classic;startFill=1;entryX=0;entryY=0.25;entryDx=0;entryDy=0;entryPerimeter=0;edgeStyle=orthogonalEdgeStyle;exitX=0.5;exitY=1;exitDx=0;exitDy=0;" parent="kU3VAMtRWlbckvyZx4EI-1" source="kU3VAMtRWlbckvyZx4EI-27" target="kU3VAMtRWlbckvyZx4EI-130" edge="1">
                    <mxGeometry width="50" height="50" relative="1" as="geometry">
                        <mxPoint x="646.4299999999998" y="-1442" as="sourcePoint"/>
                        <mxPoint x="659.5" y="-1100" as="targetPoint"/>
                        <Array as="points"/>
                    </mxGeometry>
                </mxCell>
                <mxCell id="kU3VAMtRWlbckvyZx4EI-133" value="" style="endArrow=classic;html=1;startArrow=classic;startFill=1;exitX=0.5;exitY=1;exitDx=0;exitDy=0;strokeColor=#3333FF;edgeStyle=orthogonalEdgeStyle;entryX=1;entryY=0.25;entryDx=0;entryDy=0;entryPerimeter=0;" parent="kU3VAMtRWlbckvyZx4EI-1" source="kU3VAMtRWlbckvyZx4EI-110" target="kU3VAMtRWlbckvyZx4EI-130" edge="1">
                    <mxGeometry width="50" height="50" relative="1" as="geometry">
                        <mxPoint x="701.4299999999998" y="-1442" as="sourcePoint"/>
                        <mxPoint x="1050" y="-1515" as="targetPoint"/>
                        <Array as="points">
                            <mxPoint x="742" y="-1515"/>
                            <mxPoint x="720" y="-1515"/>
                            <mxPoint x="720" y="-1515"/>
                        </Array>
                    </mxGeometry>
                </mxCell>
                <mxCell id="kU3VAMtRWlbckvyZx4EI-134" value="" style="outlineConnect=0;fontColor=#232F3E;gradientColor=none;fillColor=#5A30B5;strokeColor=none;dashed=0;verticalLabelPosition=bottom;verticalAlign=top;align=center;html=1;fontSize=12;fontStyle=0;aspect=fixed;pointerEvents=1;shape=mxgraph.aws4.endpoints;" parent="kU3VAMtRWlbckvyZx4EI-1" vertex="1">
                    <mxGeometry x="1080" y="-1110" width="58" height="58" as="geometry"/>
                </mxCell>
                <mxCell id="kU3VAMtRWlbckvyZx4EI-135" value="VPC Endpoint" style="text;html=1;strokeColor=none;fillColor=none;align=center;verticalAlign=middle;whiteSpace=wrap;rounded=0;dashed=1;fontSize=12;" parent="kU3VAMtRWlbckvyZx4EI-1" vertex="1">
                    <mxGeometry x="1069" y="-1050.26" width="80" height="20" as="geometry"/>
                </mxCell>
                <mxCell id="kU3VAMtRWlbckvyZx4EI-138" value="" style="endArrow=classic;html=1;fontColor=#FF0000;edgeStyle=orthogonalEdgeStyle;exitX=0.25;exitY=1;exitDx=0;exitDy=0;startArrow=classic;startFill=1;strokeColor=#00CC00;" parent="kU3VAMtRWlbckvyZx4EI-1" source="kU3VAMtRWlbckvyZx4EI-29" target="kU3VAMtRWlbckvyZx4EI-124" edge="1">
                    <mxGeometry width="50" height="50" relative="1" as="geometry">
                        <mxPoint x="592.44" y="-1268" as="sourcePoint"/>
                        <mxPoint x="420" y="-1100" as="targetPoint"/>
                        <Array as="points">
                            <mxPoint x="420" y="-1160"/>
                            <mxPoint x="420" y="-1160"/>
                        </Array>
                    </mxGeometry>
                </mxCell>
                <mxCell id="kU3VAMtRWlbckvyZx4EI-139" value="" style="endArrow=classic;html=1;fontColor=#FF0000;edgeStyle=orthogonalEdgeStyle;startArrow=classic;startFill=1;strokeColor=#00CC00;" parent="kU3VAMtRWlbckvyZx4EI-1" source="kU3VAMtRWlbckvyZx4EI-40" target="kU3VAMtRWlbckvyZx4EI-134" edge="1">
                    <mxGeometry width="50" height="50" relative="1" as="geometry">
                        <mxPoint x="1010.6600000000003" y="-1195.5800000000002" as="sourcePoint"/>
                        <mxPoint x="1023.5" y="-1080" as="targetPoint"/>
                        <Array as="points">
                            <mxPoint x="926" y="-1140"/>
                            <mxPoint x="1109" y="-1140"/>
                        </Array>
                    </mxGeometry>
                </mxCell>
                <mxCell id="kU3VAMtRWlbckvyZx4EI-140" value="" style="endArrow=classic;html=1;fontColor=#FF0000;edgeStyle=orthogonalEdgeStyle;startArrow=classic;startFill=1;strokeColor=#00CC00;exitX=0.647;exitY=1.006;exitDx=0;exitDy=0;exitPerimeter=0;" parent="kU3VAMtRWlbckvyZx4EI-1" source="kU3VAMtRWlbckvyZx4EI-30" target="kU3VAMtRWlbckvyZx4EI-134" edge="1">
                    <mxGeometry width="50" height="50" relative="1" as="geometry">
                        <mxPoint x="935.8285714285712" y="-1215.5" as="sourcePoint"/>
                        <mxPoint x="1119.0285714285715" y="-1100" as="targetPoint"/>
                        <Array as="points">
                            <mxPoint x="1275" y="-1110"/>
                        </Array>
                    </mxGeometry>
                </mxCell>
                <mxCell id="kU3VAMtRWlbckvyZx4EI-145" value="" style="points=[[0,0,0],[0.25,0,0],[0.5,0,0],[0.75,0,0],[1,0,0],[0,1,0],[0.25,1,0],[0.5,1,0],[0.75,1,0],[1,1,0],[0,0.25,0],[0,0.5,0],[0,0.75,0],[1,0.25,0],[1,0.5,0],[1,0.75,0]];points=[[0,0,0],[0.25,0,0],[0.5,0,0],[0.75,0,0],[1,0,0],[0,1,0],[0.25,1,0],[0.5,1,0],[0.75,1,0],[1,1,0],[0,0.25,0],[0,0.5,0],[0,0.75,0],[1,0.25,0],[1,0.5,0],[1,0.75,0]];outlineConnect=0;fontColor=#232F3E;gradientColor=#F34482;gradientDirection=north;fillColor=#BC1356;strokeColor=#ffffff;dashed=0;verticalLabelPosition=bottom;verticalAlign=top;align=center;html=1;fontSize=12;fontStyle=0;aspect=fixed;shape=mxgraph.aws4.resourceIcon;resIcon=mxgraph.aws4.trusted_advisor;" parent="kU3VAMtRWlbckvyZx4EI-1" vertex="1">
                    <mxGeometry x="1277.9" y="-1307.5" width="58" height="58" as="geometry"/>
                </mxCell>
                <mxCell id="kU3VAMtRWlbckvyZx4EI-146" value="Trusted Advisor" style="text;html=1;strokeColor=none;fillColor=none;align=center;verticalAlign=middle;whiteSpace=wrap;rounded=0;" parent="kU3VAMtRWlbckvyZx4EI-1" vertex="1">
                    <mxGeometry x="1286.9" y="-1249.5" width="40" height="31" as="geometry"/>
                </mxCell>
                <mxCell id="kU3VAMtRWlbckvyZx4EI-147" value="&lt;span style=&quot;font-size: 16px ; text-align: left ; word-spacing: 1px ; background-color: rgb(255 , 255 , 255)&quot;&gt;ap-northeast-1c&lt;/span&gt;" style="text;html=1;strokeColor=none;fillColor=none;align=center;verticalAlign=middle;whiteSpace=wrap;rounded=0;fontColor=#FF8000;" parent="kU3VAMtRWlbckvyZx4EI-1" vertex="1">
                    <mxGeometry x="840.0020930232558" y="-979.9973405698779" width="142.8867109634552" height="28" as="geometry"/>
                </mxCell>
                <mxCell id="kU3VAMtRWlbckvyZx4EI-148" value="" style="group" parent="kU3VAMtRWlbckvyZx4EI-1" vertex="1" connectable="0">
                    <mxGeometry x="792.6300000000001" y="190" width="128.75" height="110" as="geometry"/>
                </mxCell>
                <mxCell id="kU3VAMtRWlbckvyZx4EI-149" value="" style="outlineConnect=0;dashed=0;verticalLabelPosition=bottom;verticalAlign=top;align=center;html=1;shape=mxgraph.aws3.rds_db_instance_read_replica;fillColor=#2E73B8;gradientColor=none;strokeWidth=5;" parent="kU3VAMtRWlbckvyZx4EI-148" vertex="1">
                    <mxGeometry x="39.629999999999995" width="49.5" height="66" as="geometry"/>
                </mxCell>
                <mxCell id="kU3VAMtRWlbckvyZx4EI-150" value="RDS&lt;br&gt;Aurora PostgreSQL&lt;br&gt;(レプリカ)" style="text;html=1;strokeColor=none;fillColor=none;align=center;verticalAlign=middle;whiteSpace=wrap;rounded=0;" parent="kU3VAMtRWlbckvyZx4EI-148" vertex="1">
                    <mxGeometry y="66" width="128.75" height="44" as="geometry"/>
                </mxCell>
                <mxCell id="kU3VAMtRWlbckvyZx4EI-151" value="" style="group" parent="kU3VAMtRWlbckvyZx4EI-1" vertex="1" connectable="0">
                    <mxGeometry x="394.5" y="190" width="142.75" height="110" as="geometry"/>
                </mxCell>
                <mxCell id="kU3VAMtRWlbckvyZx4EI-152" value="" style="outlineConnect=0;dashed=0;verticalLabelPosition=bottom;verticalAlign=top;align=center;html=1;shape=mxgraph.aws3.rds_db_instance;fillColor=#2E73B8;gradientColor=none;strokeWidth=5;" parent="kU3VAMtRWlbckvyZx4EI-151" vertex="1">
                    <mxGeometry x="46.620000000000005" width="49.5" height="66" as="geometry"/>
                </mxCell>
                <mxCell id="kU3VAMtRWlbckvyZx4EI-153" value="RDS&lt;br&gt;Aurora PostgreSQL&lt;br&gt;(プライマリインスタンス)" style="text;html=1;strokeColor=none;fillColor=none;align=center;verticalAlign=middle;whiteSpace=wrap;rounded=0;" parent="kU3VAMtRWlbckvyZx4EI-151" vertex="1">
                    <mxGeometry y="66" width="142.75" height="44" as="geometry"/>
                </mxCell>
                <mxCell id="kU3VAMtRWlbckvyZx4EI-154" value="" style="endArrow=classic;startArrow=none;html=1;fillColor=#ffffff;fontSize=12;dashed=1;entryX=0;entryY=0.5;entryDx=0;entryDy=0;entryPerimeter=0;startFill=0;" parent="kU3VAMtRWlbckvyZx4EI-1" source="kU3VAMtRWlbckvyZx4EI-152" target="kU3VAMtRWlbckvyZx4EI-149" edge="1">
                    <mxGeometry x="669.61" y="-1200" width="50" height="50" as="geometry">
                        <mxPoint x="461.6200000000001" y="-165.5" as="sourcePoint"/>
                        <mxPoint x="834.0000000000001" y="179.1957390146472" as="targetPoint"/>
                        <Array as="points"/>
                    </mxGeometry>
                </mxCell>
                <mxCell id="kU3VAMtRWlbckvyZx4EI-155" value="Security Group" style="text;html=1;strokeColor=none;fillColor=none;align=center;verticalAlign=middle;whiteSpace=wrap;rounded=0;fontColor=#FF0000;" parent="kU3VAMtRWlbckvyZx4EI-1" vertex="1">
                    <mxGeometry x="374.5" y="170" width="91.58333333333333" height="22" as="geometry"/>
                </mxCell>
                <mxCell id="kU3VAMtRWlbckvyZx4EI-156" value="" style="group" parent="kU3VAMtRWlbckvyZx4EI-1" vertex="1" connectable="0">
                    <mxGeometry x="439.14" y="-20" width="58" height="80" as="geometry"/>
                </mxCell>
                <mxCell id="kU3VAMtRWlbckvyZx4EI-157" value="" style="outlineConnect=0;fontColor=#232F3E;gradientColor=none;fillColor=#3334B9;strokeColor=none;dashed=0;verticalLabelPosition=bottom;verticalAlign=top;align=center;html=1;fontSize=12;fontStyle=0;aspect=fixed;pointerEvents=1;shape=mxgraph.aws4.elasticache_for_redis;" parent="kU3VAMtRWlbckvyZx4EI-156" vertex="1">
                    <mxGeometry width="58" height="51.3" as="geometry"/>
                </mxCell>
                <mxCell id="kU3VAMtRWlbckvyZx4EI-158" value="ElastiCache for Redis" style="text;html=1;strokeColor=none;fillColor=none;align=center;verticalAlign=middle;whiteSpace=wrap;rounded=0;" parent="kU3VAMtRWlbckvyZx4EI-156" vertex="1">
                    <mxGeometry x="9" y="51.299999999999955" width="40" height="28.7" as="geometry"/>
                </mxCell>
                <mxCell id="kU3VAMtRWlbckvyZx4EI-159" value="" style="group" parent="kU3VAMtRWlbckvyZx4EI-1" vertex="1" connectable="0">
                    <mxGeometry x="827.1400000000001" y="-21" width="58" height="80" as="geometry"/>
                </mxCell>
                <mxCell id="kU3VAMtRWlbckvyZx4EI-160" value="" style="outlineConnect=0;fontColor=#232F3E;gradientColor=none;fillColor=#3334B9;strokeColor=none;dashed=0;verticalLabelPosition=bottom;verticalAlign=top;align=center;html=1;fontSize=12;fontStyle=0;aspect=fixed;pointerEvents=1;shape=mxgraph.aws4.elasticache_for_redis;" parent="kU3VAMtRWlbckvyZx4EI-159" vertex="1">
                    <mxGeometry width="58" height="51.3" as="geometry"/>
                </mxCell>
                <mxCell id="kU3VAMtRWlbckvyZx4EI-161" value="ElastiCache for Redis" style="text;html=1;strokeColor=none;fillColor=none;align=center;verticalAlign=middle;whiteSpace=wrap;rounded=0;" parent="kU3VAMtRWlbckvyZx4EI-159" vertex="1">
                    <mxGeometry x="9" y="51.299999999999955" width="40" height="28.7" as="geometry"/>
                </mxCell>
                <mxCell id="kU3VAMtRWlbckvyZx4EI-162" value="" style="endArrow=classic;startArrow=none;html=1;fillColor=#ffffff;fontSize=12;dashed=1;startFill=0;" parent="kU3VAMtRWlbckvyZx4EI-1" source="kU3VAMtRWlbckvyZx4EI-157" target="kU3VAMtRWlbckvyZx4EI-160" edge="1">
                    <mxGeometry x="422.14" y="-20" width="50" height="50" as="geometry">
                        <mxPoint x="394.7600000000001" y="-85.5" as="sourcePoint"/>
                        <mxPoint x="832.1400000000001" y="-85.5" as="targetPoint"/>
                        <Array as="points"/>
                    </mxGeometry>
                </mxCell>
                <mxCell id="kU3VAMtRWlbckvyZx4EI-163" value="Security Group" style="text;html=1;strokeColor=none;fillColor=none;align=center;verticalAlign=middle;whiteSpace=wrap;rounded=0;fontColor=#FF0000;" parent="kU3VAMtRWlbckvyZx4EI-1" vertex="1">
                    <mxGeometry x="383.14" y="-50" width="91.58333333333333" height="22" as="geometry"/>
                </mxCell>
                <mxCell id="kU3VAMtRWlbckvyZx4EI-164" value="レプリケーション" style="rounded=0;whiteSpace=wrap;html=1;fontSize=12;dashed=1;" parent="kU3VAMtRWlbckvyZx4EI-1" vertex="1">
                    <mxGeometry x="607.8900000000001" y="-7" width="107.5" height="24" as="geometry"/>
                </mxCell>
                <mxCell id="kU3VAMtRWlbckvyZx4EI-165" value="レプリケーション" style="rounded=0;whiteSpace=wrap;html=1;fontSize=12;dashed=1;" parent="kU3VAMtRWlbckvyZx4EI-1" vertex="1">
                    <mxGeometry x="610.9300000000002" y="211" width="107.5" height="24" as="geometry"/>
                </mxCell>
                <mxCell id="kU3VAMtRWlbckvyZx4EI-166" value="Security Group" style="text;html=1;strokeColor=none;fillColor=none;align=center;verticalAlign=middle;whiteSpace=wrap;rounded=0;fontColor=#FF0000;" parent="kU3VAMtRWlbckvyZx4EI-1" vertex="1">
                    <mxGeometry x="385.8800000000001" y="-418" width="91.58333333333333" height="22" as="geometry"/>
                </mxCell>
                <mxCell id="kU3VAMtRWlbckvyZx4EI-167" value="" style="points=[[0,0,0],[0.25,0,0],[0.5,0,0],[0.75,0,0],[1,0,0],[0,1,0],[0.25,1,0],[0.5,1,0],[0.75,1,0],[1,1,0],[0,0.25,0],[0,0.5,0],[0,0.75,0],[1,0.25,0],[1,0.5,0],[1,0.75,0]];outlineConnect=0;fontColor=#232F3E;gradientColor=#F78E04;gradientDirection=north;fillColor=#D05C17;strokeColor=#ffffff;dashed=0;verticalLabelPosition=bottom;verticalAlign=top;align=center;html=1;fontSize=12;fontStyle=0;aspect=fixed;shape=mxgraph.aws4.resourceIcon;resIcon=mxgraph.aws4.ec2;" parent="kU3VAMtRWlbckvyZx4EI-1" vertex="1">
                    <mxGeometry x="446.5" y="-860" width="58" height="58" as="geometry"/>
                </mxCell>
                <mxCell id="kU3VAMtRWlbckvyZx4EI-168" value="EC2" style="text;html=1;strokeColor=none;fillColor=none;align=center;verticalAlign=middle;whiteSpace=wrap;rounded=0;" parent="kU3VAMtRWlbckvyZx4EI-1" vertex="1">
                    <mxGeometry x="455.5" y="-802" width="40" height="20" as="geometry"/>
                </mxCell>
                <mxCell id="kU3VAMtRWlbckvyZx4EI-169" value="ファイル連携サーバ(Act)" style="text;html=1;strokeColor=none;fillColor=none;align=center;verticalAlign=middle;whiteSpace=wrap;rounded=0;" parent="kU3VAMtRWlbckvyZx4EI-1" vertex="1">
                    <mxGeometry x="388.13" y="-782" width="174.75" height="20" as="geometry"/>
                </mxCell>
                <mxCell id="kU3VAMtRWlbckvyZx4EI-170" value="" style="endArrow=classic;startArrow=classic;html=1;fillColor=#ffffff;fontSize=12;dashed=1;entryX=0;entryY=0.5;entryDx=0;entryDy=0;entryPerimeter=0;exitX=1;exitY=0.5;exitDx=0;exitDy=0;exitPerimeter=0;" parent="kU3VAMtRWlbckvyZx4EI-1" source="kU3VAMtRWlbckvyZx4EI-167" target="kU3VAMtRWlbckvyZx4EI-173" edge="1">
                    <mxGeometry x="1068.1299999999999" y="-1840" width="50" height="50" as="geometry">
                        <mxPoint x="530.2500000000001" y="-793" as="sourcePoint"/>
                        <mxPoint x="871.8900000000002" y="-793" as="targetPoint"/>
                        <Array as="points"/>
                    </mxGeometry>
                </mxCell>
                <mxCell id="kU3VAMtRWlbckvyZx4EI-171" value="" style="group" parent="kU3VAMtRWlbckvyZx4EI-1" vertex="1" connectable="0">
                    <mxGeometry x="770.5" y="-860" width="174.75" height="98" as="geometry"/>
                </mxCell>
                <mxCell id="kU3VAMtRWlbckvyZx4EI-172" value="EC2" style="text;html=1;strokeColor=none;fillColor=none;align=center;verticalAlign=middle;whiteSpace=wrap;rounded=0;" parent="kU3VAMtRWlbckvyZx4EI-171" vertex="1">
                    <mxGeometry x="67.37" y="58" width="40" height="20" as="geometry"/>
                </mxCell>
                <mxCell id="kU3VAMtRWlbckvyZx4EI-173" value="" style="points=[[0,0,0],[0.25,0,0],[0.5,0,0],[0.75,0,0],[1,0,0],[0,1,0],[0.25,1,0],[0.5,1,0],[0.75,1,0],[1,1,0],[0,0.25,0],[0,0.5,0],[0,0.75,0],[1,0.25,0],[1,0.5,0],[1,0.75,0]];outlineConnect=0;fontColor=#232F3E;gradientColor=#F78E04;gradientDirection=north;fillColor=#D05C17;strokeColor=#ffffff;dashed=0;verticalLabelPosition=bottom;verticalAlign=top;align=center;html=1;fontSize=12;fontStyle=0;aspect=fixed;shape=mxgraph.aws4.resourceIcon;resIcon=mxgraph.aws4.ec2;" parent="kU3VAMtRWlbckvyZx4EI-171" vertex="1">
                    <mxGeometry x="58.370000000000005" width="58" height="58" as="geometry"/>
                </mxCell>
                <mxCell id="kU3VAMtRWlbckvyZx4EI-174" value="ファイル連携サーバ(Stb)" style="text;html=1;strokeColor=none;fillColor=none;align=center;verticalAlign=middle;whiteSpace=wrap;rounded=0;" parent="kU3VAMtRWlbckvyZx4EI-171" vertex="1">
                    <mxGeometry y="78" width="174.75" height="20" as="geometry"/>
                </mxCell>
                <mxCell id="kU3VAMtRWlbckvyZx4EI-175" value="" style="pointerEvents=1;shadow=0;dashed=0;html=1;strokeColor=none;fillColor=#434445;aspect=fixed;labelPosition=center;verticalLabelPosition=bottom;verticalAlign=top;align=center;outlineConnect=0;shape=mxgraph.vvd.storage;" parent="kU3VAMtRWlbckvyZx4EI-1" vertex="1">
                    <mxGeometry x="1516.25" y="-786.26" width="37.5" height="50" as="geometry"/>
                </mxCell>
                <mxCell id="kU3VAMtRWlbckvyZx4EI-176" value="Aurora&lt;br&gt;クラスターボリューム" style="text;html=1;strokeColor=none;fillColor=none;align=center;verticalAlign=middle;whiteSpace=wrap;rounded=0;" parent="kU3VAMtRWlbckvyZx4EI-1" vertex="1">
                    <mxGeometry x="1470" y="-736.26" width="130" height="42" as="geometry"/>
                </mxCell>
                <mxCell id="kU3VAMtRWlbckvyZx4EI-177" value="" style="endArrow=classic;startArrow=none;html=1;fillColor=#ffffff;fontSize=12;dashed=1;exitX=0.999;exitY=0.366;exitDx=0;exitDy=0;startFill=0;edgeStyle=elbowEdgeStyle;entryX=0.5;entryY=1;entryDx=0;entryDy=0;exitPerimeter=0;" parent="kU3VAMtRWlbckvyZx4EI-1" source="kU3VAMtRWlbckvyZx4EI-16" target="kU3VAMtRWlbckvyZx4EI-176" edge="1">
                    <mxGeometry x="838.39" y="201" width="50" height="50" as="geometry">
                        <mxPoint x="950" y="238" as="sourcePoint"/>
                        <mxPoint x="1575" y="-650" as="targetPoint"/>
                        <Array as="points">
                            <mxPoint x="1535" y="-210"/>
                        </Array>
                    </mxGeometry>
                </mxCell>
                <mxCell id="kU3VAMtRWlbckvyZx4EI-178" value="レプリケーション" style="rounded=0;whiteSpace=wrap;html=1;fontSize=12;dashed=1;" parent="kU3VAMtRWlbckvyZx4EI-1" vertex="1">
                    <mxGeometry x="1209.79" y="211" width="141.21" height="24" as="geometry"/>
                </mxCell>
                <mxCell id="kU3VAMtRWlbckvyZx4EI-179" value="&lt;font color=&quot;#3333ff&quot;&gt;Private subnet&lt;/font&gt;" style="points=[[0,0],[0.25,0],[0.5,0],[0.75,0],[1,0],[1,0.25],[1,0.5],[1,0.75],[1,1],[0.75,1],[0.5,1],[0.25,1],[0,1],[0,0.75],[0,0.5],[0,0.25]];outlineConnect=0;html=1;whiteSpace=wrap;fontSize=12;fontStyle=0;shape=mxgraph.aws4.group;grIcon=mxgraph.aws4.group_security_group;grStroke=0;verticalAlign=top;align=left;spacingLeft=30;dashed=0;fillColor=#dae8fc;strokeColor=#6c8ebf;" parent="kU3VAMtRWlbckvyZx4EI-1" vertex="1">
                    <mxGeometry x="727.5" y="-690" width="250" height="190" as="geometry"/>
                </mxCell>
                <mxCell id="kU3VAMtRWlbckvyZx4EI-180" value="&lt;font color=&quot;#3333ff&quot;&gt;Private subnet&lt;/font&gt;" style="points=[[0,0],[0.25,0],[0.5,0],[0.75,0],[1,0],[1,0.25],[1,0.5],[1,0.75],[1,1],[0.75,1],[0.5,1],[0.25,1],[0,1],[0,0.75],[0,0.5],[0,0.25]];outlineConnect=0;html=1;whiteSpace=wrap;fontSize=12;fontStyle=0;shape=mxgraph.aws4.group;grIcon=mxgraph.aws4.group_security_group;grStroke=0;verticalAlign=top;align=left;spacingLeft=30;dashed=0;fillColor=#dae8fc;strokeColor=#6c8ebf;" parent="kU3VAMtRWlbckvyZx4EI-1" vertex="1">
                    <mxGeometry x="342.5" y="-690" width="250" height="190" as="geometry"/>
                </mxCell>
                <mxCell id="kU3VAMtRWlbckvyZx4EI-181" value="" style="group" parent="kU3VAMtRWlbckvyZx4EI-1" vertex="1" connectable="0">
                    <mxGeometry x="382.5" y="-660" width="560" height="140" as="geometry"/>
                </mxCell>
                <mxCell id="kU3VAMtRWlbckvyZx4EI-182" value="" style="rounded=1;arcSize=10;dashed=1;strokeColor=#ff0000;fillColor=none;gradientColor=none;dashPattern=8 4;strokeWidth=2;" parent="kU3VAMtRWlbckvyZx4EI-181" vertex="1">
                    <mxGeometry width="560" height="140" as="geometry"/>
                </mxCell>
                <mxCell id="kU3VAMtRWlbckvyZx4EI-183" value="Security Group" style="text;html=1;strokeColor=none;fillColor=none;align=center;verticalAlign=middle;whiteSpace=wrap;rounded=0;fontColor=#FF0000;" parent="kU3VAMtRWlbckvyZx4EI-181" vertex="1">
                    <mxGeometry width="90" height="22" as="geometry"/>
                </mxCell>
                <mxCell id="kU3VAMtRWlbckvyZx4EI-184" value="" style="points=[[0,0,0],[0.25,0,0],[0.5,0,0],[0.75,0,0],[1,0,0],[0,1,0],[0.25,1,0],[0.5,1,0],[0.75,1,0],[1,1,0],[0,0.25,0],[0,0.5,0],[0,0.75,0],[1,0.25,0],[1,0.5,0],[1,0.75,0]];outlineConnect=0;fontColor=#232F3E;gradientColor=#F78E04;gradientDirection=north;fillColor=#D05C17;strokeColor=#ffffff;dashed=0;verticalLabelPosition=bottom;verticalAlign=top;align=center;html=1;fontSize=12;fontStyle=0;aspect=fixed;shape=mxgraph.aws4.resourceIcon;resIcon=mxgraph.aws4.ec2;" parent="kU3VAMtRWlbckvyZx4EI-1" vertex="1">
                    <mxGeometry x="443.5" y="-630" width="58" height="58" as="geometry"/>
                </mxCell>
                <mxCell id="kU3VAMtRWlbckvyZx4EI-185" value="EC2" style="text;html=1;strokeColor=none;fillColor=none;align=center;verticalAlign=middle;whiteSpace=wrap;rounded=0;" parent="kU3VAMtRWlbckvyZx4EI-1" vertex="1">
                    <mxGeometry x="452.5" y="-572" width="40" height="20" as="geometry"/>
                </mxCell>
                <mxCell id="kU3VAMtRWlbckvyZx4EI-186" value="バッチサーバ(Act)" style="text;html=1;strokeColor=none;fillColor=none;align=center;verticalAlign=middle;whiteSpace=wrap;rounded=0;" parent="kU3VAMtRWlbckvyZx4EI-1" vertex="1">
                    <mxGeometry x="385.13" y="-552" width="174.75" height="20" as="geometry"/>
                </mxCell>
                <mxCell id="kU3VAMtRWlbckvyZx4EI-187" value="" style="group" parent="kU3VAMtRWlbckvyZx4EI-1" vertex="1" connectable="0">
                    <mxGeometry x="767.5" y="-630" width="174.75" height="98" as="geometry"/>
                </mxCell>
                <mxCell id="kU3VAMtRWlbckvyZx4EI-188" value="EC2" style="text;html=1;strokeColor=none;fillColor=none;align=center;verticalAlign=middle;whiteSpace=wrap;rounded=0;" parent="kU3VAMtRWlbckvyZx4EI-187" vertex="1">
                    <mxGeometry x="67.37" y="58" width="40" height="20" as="geometry"/>
                </mxCell>
                <mxCell id="kU3VAMtRWlbckvyZx4EI-189" value="" style="points=[[0,0,0],[0.25,0,0],[0.5,0,0],[0.75,0,0],[1,0,0],[0,1,0],[0.25,1,0],[0.5,1,0],[0.75,1,0],[1,1,0],[0,0.25,0],[0,0.5,0],[0,0.75,0],[1,0.25,0],[1,0.5,0],[1,0.75,0]];outlineConnect=0;fontColor=#232F3E;gradientColor=#F78E04;gradientDirection=north;fillColor=#D05C17;strokeColor=#ffffff;dashed=0;verticalLabelPosition=bottom;verticalAlign=top;align=center;html=1;fontSize=12;fontStyle=0;aspect=fixed;shape=mxgraph.aws4.resourceIcon;resIcon=mxgraph.aws4.ec2;" parent="kU3VAMtRWlbckvyZx4EI-187" vertex="1">
                    <mxGeometry x="58.370000000000005" width="58" height="58" as="geometry"/>
                </mxCell>
                <mxCell id="kU3VAMtRWlbckvyZx4EI-190" value="バッチサーバ(Stb)" style="text;html=1;strokeColor=none;fillColor=none;align=center;verticalAlign=middle;whiteSpace=wrap;rounded=0;" parent="kU3VAMtRWlbckvyZx4EI-187" vertex="1">
                    <mxGeometry y="78" width="174.75" height="20" as="geometry"/>
                </mxCell>
                <mxCell id="kU3VAMtRWlbckvyZx4EI-191" value="" style="endArrow=classic;html=1;rounded=1;edgeStyle=orthogonalEdgeStyle;startArrow=classic;startFill=1;strokeColor=#3333FF;exitX=0;exitY=0.1;exitDx=0;exitDy=0;exitPerimeter=0;entryX=0;entryY=0.5;entryDx=0;entryDy=0;entryPerimeter=0;" parent="kU3VAMtRWlbckvyZx4EI-1" source="kU3VAMtRWlbckvyZx4EI-152" target="kU3VAMtRWlbckvyZx4EI-184" edge="1">
                    <mxGeometry x="680" y="-762" width="50" height="50" as="geometry">
                        <mxPoint x="497.0500000000002" y="478.46000000000004" as="sourcePoint"/>
                        <mxPoint x="453" y="-430" as="targetPoint"/>
                        <Array as="points">
                            <mxPoint x="300" y="197"/>
                            <mxPoint x="300" y="-601"/>
                        </Array>
                    </mxGeometry>
                </mxCell>
                <mxCell id="kU3VAMtRWlbckvyZx4EI-192" value="" style="endArrow=classic;html=1;exitX=0;exitY=0.25;exitDx=0;exitDy=0;rounded=1;edgeStyle=orthogonalEdgeStyle;startArrow=classic;startFill=1;entryX=0.75;entryY=0;entryDx=0;entryDy=0;entryPerimeter=0;strokeColor=#3333FF;exitPerimeter=0;" parent="kU3VAMtRWlbckvyZx4EI-1" source="kU3VAMtRWlbckvyZx4EI-81" target="kU3VAMtRWlbckvyZx4EI-184" edge="1">
                    <mxGeometry width="50" height="50" relative="1" as="geometry">
                        <mxPoint x="640.3900000000002" y="-1030" as="sourcePoint"/>
                        <mxPoint x="503.2099999999997" y="-633.5" as="targetPoint"/>
                        <Array as="points">
                            <mxPoint x="600" y="-1095"/>
                            <mxPoint x="600" y="-690"/>
                            <mxPoint x="487" y="-690"/>
                        </Array>
                    </mxGeometry>
                </mxCell>
                <mxCell id="kU3VAMtRWlbckvyZx4EI-193" value="" style="endArrow=classic;html=1;fillColor=#dae8fc;strokeColor=#6c8ebf;edgeStyle=orthogonalEdgeStyle;elbow=vertical;rounded=1;startArrow=classic;startFill=1;exitX=1;exitY=0.75;exitDx=0;exitDy=0;exitPerimeter=0;entryX=0;entryY=0.5;entryDx=0;entryDy=0;entryPerimeter=0;" parent="kU3VAMtRWlbckvyZx4EI-1" source="kU3VAMtRWlbckvyZx4EI-184" target="kU3VAMtRWlbckvyZx4EI-35" edge="1">
                    <mxGeometry width="50" height="50" relative="1" as="geometry">
                        <mxPoint x="510" y="-250" as="sourcePoint"/>
                        <mxPoint x="1250" y="-890" as="targetPoint"/>
                        <Array as="points">
                            <mxPoint x="530" y="-587"/>
                            <mxPoint x="530" y="-500"/>
                            <mxPoint x="1000" y="-500"/>
                            <mxPoint x="1000" y="-890"/>
                            <mxPoint x="1250" y="-890"/>
                            <mxPoint x="1250" y="-891"/>
                        </Array>
                    </mxGeometry>
                </mxCell>
                <mxCell id="kU3VAMtRWlbckvyZx4EI-194" value="" style="endArrow=classic;html=1;fillColor=#d5e8d4;strokeColor=#82b366;edgeStyle=orthogonalEdgeStyle;exitX=1;exitY=0.25;exitDx=0;exitDy=0;exitPerimeter=0;startArrow=classic;startFill=1;entryX=0.242;entryY=1.114;entryDx=0;entryDy=0;entryPerimeter=0;" parent="kU3VAMtRWlbckvyZx4EI-1" source="kU3VAMtRWlbckvyZx4EI-184" target="kU3VAMtRWlbckvyZx4EI-23" edge="1">
                    <mxGeometry width="50" height="50" relative="1" as="geometry">
                        <mxPoint x="516.7399999999996" y="-478.96000000000004" as="sourcePoint"/>
                        <mxPoint x="1140" y="-690" as="targetPoint"/>
                        <Array as="points">
                            <mxPoint x="570" y="-615"/>
                            <mxPoint x="570" y="-510"/>
                            <mxPoint x="1139" y="-510"/>
                        </Array>
                    </mxGeometry>
                </mxCell>
                <mxCell id="kU3VAMtRWlbckvyZx4EI-195" value="" style="endArrow=classic;html=1;fillColor=#dae8fc;strokeColor=#6c8ebf;edgeStyle=orthogonalEdgeStyle;elbow=vertical;rounded=1;startArrow=classic;startFill=1;" parent="kU3VAMtRWlbckvyZx4EI-1" source="kU3VAMtRWlbckvyZx4EI-189" edge="1">
                    <mxGeometry width="50" height="50" relative="1" as="geometry">
                        <mxPoint x="893" y="-460" as="sourcePoint"/>
                        <mxPoint x="1270" y="-890" as="targetPoint"/>
                        <Array as="points">
                            <mxPoint x="1000" y="-601"/>
                            <mxPoint x="1000" y="-890"/>
                        </Array>
                    </mxGeometry>
                </mxCell>
                <mxCell id="kU3VAMtRWlbckvyZx4EI-196" value="" style="points=[[0,0,0],[0.25,0,0],[0.5,0,0],[0.75,0,0],[1,0,0],[0,1,0],[0.25,1,0],[0.5,1,0],[0.75,1,0],[1,1,0],[0,0.25,0],[0,0.5,0],[0,0.75,0],[1,0.25,0],[1,0.5,0],[1,0.75,0]];outlineConnect=0;fontColor=#232F3E;gradientColor=#F78E04;gradientDirection=north;fillColor=#D05C17;strokeColor=#ffffff;dashed=0;verticalLabelPosition=bottom;verticalAlign=top;align=center;html=1;fontSize=12;fontStyle=0;aspect=fixed;shape=mxgraph.aws4.resourceIcon;resIcon=mxgraph.aws4.ec2;" parent="kU3VAMtRWlbckvyZx4EI-1" vertex="1">
                    <mxGeometry x="451.99" y="-389" width="58" height="58" as="geometry"/>
                </mxCell>
                <mxCell id="kU3VAMtRWlbckvyZx4EI-197" value="EC2" style="text;html=1;strokeColor=none;fillColor=none;align=center;verticalAlign=middle;whiteSpace=wrap;rounded=0;" parent="kU3VAMtRWlbckvyZx4EI-1" vertex="1">
                    <mxGeometry x="460.99" y="-331" width="40" height="20" as="geometry"/>
                </mxCell>
                <mxCell id="kU3VAMtRWlbckvyZx4EI-198" value="WebAPサーバ(Act)" style="text;html=1;strokeColor=none;fillColor=none;align=center;verticalAlign=middle;whiteSpace=wrap;rounded=0;" parent="kU3VAMtRWlbckvyZx4EI-1" vertex="1">
                    <mxGeometry x="393.62" y="-311" width="174.75" height="20" as="geometry"/>
                </mxCell>
                <mxCell id="kU3VAMtRWlbckvyZx4EI-199" value="" style="points=[[0,0,0],[0.25,0,0],[0.5,0,0],[0.75,0,0],[1,0,0],[0,1,0],[0.25,1,0],[0.5,1,0],[0.75,1,0],[1,1,0],[0,0.25,0],[0,0.5,0],[0,0.75,0],[1,0.25,0],[1,0.5,0],[1,0.75,0]];outlineConnect=0;fontColor=#232F3E;gradientColor=#F78E04;gradientDirection=north;fillColor=#D05C17;strokeColor=#ffffff;dashed=0;verticalLabelPosition=bottom;verticalAlign=top;align=center;html=1;fontSize=12;fontStyle=0;aspect=fixed;shape=mxgraph.aws4.resourceIcon;resIcon=mxgraph.aws4.ec2;" parent="kU3VAMtRWlbckvyZx4EI-1" vertex="1">
                    <mxGeometry x="829.12" y="-388" width="58" height="58" as="geometry"/>
                </mxCell>
                <mxCell id="kU3VAMtRWlbckvyZx4EI-200" value="EC2" style="text;html=1;strokeColor=none;fillColor=none;align=center;verticalAlign=middle;whiteSpace=wrap;rounded=0;" parent="kU3VAMtRWlbckvyZx4EI-1" vertex="1">
                    <mxGeometry x="838.12" y="-330" width="40" height="20" as="geometry"/>
                </mxCell>
                <mxCell id="kU3VAMtRWlbckvyZx4EI-201" value="WebAPサーバ(Act)" style="text;html=1;strokeColor=none;fillColor=none;align=center;verticalAlign=middle;whiteSpace=wrap;rounded=0;" parent="kU3VAMtRWlbckvyZx4EI-1" vertex="1">
                    <mxGeometry x="770.75" y="-310" width="174.75" height="20" as="geometry"/>
                </mxCell>
                <mxCell id="kU3VAMtRWlbckvyZx4EI-202" value="" style="endArrow=classic;html=1;fillColor=#dae8fc;strokeColor=#6c8ebf;edgeStyle=orthogonalEdgeStyle;elbow=vertical;rounded=1;startArrow=classic;startFill=1;exitX=1;exitY=0.5;exitDx=0;exitDy=0;exitPerimeter=0;" parent="kU3VAMtRWlbckvyZx4EI-1" source="kU3VAMtRWlbckvyZx4EI-199" edge="1">
                    <mxGeometry width="50" height="50" relative="1" as="geometry">
                        <mxPoint x="521.1399999999999" y="-415.5" as="sourcePoint"/>
                        <mxPoint x="1270" y="-890" as="targetPoint"/>
                        <Array as="points">
                            <mxPoint x="1000" y="-359"/>
                            <mxPoint x="1000" y="-890"/>
                        </Array>
                    </mxGeometry>
                </mxCell>
                <mxCell id="kU3VAMtRWlbckvyZx4EI-203" value="" style="endArrow=classic;html=1;rounded=1;edgeStyle=orthogonalEdgeStyle;startArrow=classic;startFill=1;entryX=0.5;entryY=0;entryDx=0;entryDy=0;entryPerimeter=0;" parent="kU3VAMtRWlbckvyZx4EI-1" target="kU3VAMtRWlbckvyZx4EI-199" edge="1">
                    <mxGeometry width="50" height="50" relative="1" as="geometry">
                        <mxPoint x="660" y="-900" as="sourcePoint"/>
                        <mxPoint x="870" y="-388" as="targetPoint"/>
                        <Array as="points">
                            <mxPoint x="660" y="-470"/>
                            <mxPoint x="858" y="-470"/>
                        </Array>
                    </mxGeometry>
                </mxCell>
                <mxCell id="kU3VAMtRWlbckvyZx4EI-204" value="" style="endArrow=classic;html=1;fillColor=#d5e8d4;strokeColor=#82b366;edgeStyle=orthogonalEdgeStyle;rounded=1;startArrow=classic;startFill=1;entryX=0.25;entryY=1;entryDx=0;entryDy=0;exitX=1;exitY=0.25;exitDx=0;exitDy=0;exitPerimeter=0;" parent="kU3VAMtRWlbckvyZx4EI-1" source="kU3VAMtRWlbckvyZx4EI-199" target="kU3VAMtRWlbckvyZx4EI-23" edge="1">
                    <mxGeometry width="50" height="50" relative="1" as="geometry">
                        <mxPoint x="985" y="-410" as="sourcePoint"/>
                        <mxPoint x="1070" y="-660" as="targetPoint"/>
                        <Array as="points">
                            <mxPoint x="1140" y="-373"/>
                        </Array>
                    </mxGeometry>
                </mxCell>
                <mxCell id="kU3VAMtRWlbckvyZx4EI-205" value="" style="endArrow=classic;html=1;rounded=1;edgeStyle=orthogonalEdgeStyle;startArrow=classic;startFill=1;" parent="kU3VAMtRWlbckvyZx4EI-1" target="kU3VAMtRWlbckvyZx4EI-199" edge="1">
                    <mxGeometry width="50" height="50" relative="1" as="geometry">
                        <mxPoint x="490" y="-10" as="sourcePoint"/>
                        <mxPoint x="534.6824999999999" y="-281" as="targetPoint"/>
                        <Array as="points">
                            <mxPoint x="590" y="-10"/>
                            <mxPoint x="590" y="-100"/>
                            <mxPoint x="710" y="-100"/>
                            <mxPoint x="710" y="-359"/>
                        </Array>
                    </mxGeometry>
                </mxCell>
                <mxCell id="kU3VAMtRWlbckvyZx4EI-206" value="" style="endArrow=classic;html=1;rounded=1;edgeStyle=orthogonalEdgeStyle;startArrow=classic;startFill=1;entryX=0;entryY=0.75;entryDx=0;entryDy=0;entryPerimeter=0;exitX=1;exitY=0.5;exitDx=0;exitDy=0;exitPerimeter=0;" parent="kU3VAMtRWlbckvyZx4EI-1" source="kU3VAMtRWlbckvyZx4EI-152" target="kU3VAMtRWlbckvyZx4EI-199" edge="1">
                    <mxGeometry width="50" height="50" relative="1" as="geometry">
                        <mxPoint x="879.25" y="-99" as="sourcePoint"/>
                        <mxPoint x="882.2449999999999" y="-260" as="targetPoint"/>
                        <Array as="points">
                            <mxPoint x="580" y="223"/>
                            <mxPoint x="580" y="120"/>
                            <mxPoint x="760" y="120"/>
                            <mxPoint x="760" y="-344"/>
                        </Array>
                    </mxGeometry>
                </mxCell>
                <mxCell id="kU3VAMtRWlbckvyZx4EI-207" value="" style="rounded=1;arcSize=10;dashed=1;strokeColor=#ff0000;fillColor=none;gradientColor=none;dashPattern=8 4;strokeWidth=2;" parent="kU3VAMtRWlbckvyZx4EI-1" vertex="1">
                    <mxGeometry x="383.14" y="-50" width="556.11" height="120" as="geometry"/>
                </mxCell>
                <mxCell id="kU3VAMtRWlbckvyZx4EI-215" value="" style="endArrow=classic;html=1;fillColor=#d5e8d4;strokeColor=#82b366;edgeStyle=orthogonalEdgeStyle;exitX=1;exitY=0.75;exitDx=0;exitDy=0;exitPerimeter=0;startArrow=classic;startFill=1;entryX=0.25;entryY=1;entryDx=0;entryDy=0;" parent="kU3VAMtRWlbckvyZx4EI-1" source="kU3VAMtRWlbckvyZx4EI-189" target="kU3VAMtRWlbckvyZx4EI-23" edge="1">
                    <mxGeometry width="50" height="50" relative="1" as="geometry">
                        <mxPoint x="511.5" y="-605.5" as="sourcePoint"/>
                        <mxPoint x="1150" y="-690" as="targetPoint"/>
                        <Array as="points">
                            <mxPoint x="1140" y="-586"/>
                        </Array>
                    </mxGeometry>
                </mxCell>
                <mxCell id="kU3VAMtRWlbckvyZx4EI-216" value="" style="endArrow=classic;html=1;fillColor=#d5e8d4;strokeColor=#82b366;edgeStyle=orthogonalEdgeStyle;startArrow=classic;startFill=1;exitX=1;exitY=0.75;exitDx=0;exitDy=0;exitPerimeter=0;" parent="kU3VAMtRWlbckvyZx4EI-1" source="kU3VAMtRWlbckvyZx4EI-173" target="kU3VAMtRWlbckvyZx4EI-24" edge="1">
                    <mxGeometry width="50" height="50" relative="1" as="geometry">
                        <mxPoint x="515" y="-806" as="sourcePoint"/>
                        <mxPoint x="1140.79" y="-720" as="targetPoint"/>
                        <Array as="points">
                            <mxPoint x="1090" y="-816"/>
                            <mxPoint x="1090" y="-750"/>
                        </Array>
                    </mxGeometry>
                </mxCell>
                <mxCell id="kU3VAMtRWlbckvyZx4EI-217" value="" style="points=[[0,0,0],[0.25,0,0],[0.5,0,0],[0.75,0,0],[1,0,0],[0,1,0],[0.25,1,0],[0.5,1,0],[0.75,1,0],[1,1,0],[0,0.25,0],[0,0.5,0],[0,0.75,0],[1,0.25,0],[1,0.5,0],[1,0.75,0]];outlineConnect=0;fontColor=#232F3E;gradientColor=#F78E04;gradientDirection=north;fillColor=#D05C17;strokeColor=#ffffff;dashed=0;verticalLabelPosition=bottom;verticalAlign=top;align=center;html=1;fontSize=12;fontStyle=0;aspect=fixed;shape=mxgraph.aws4.resourceIcon;resIcon=mxgraph.aws4.ec2;" parent="kU3VAMtRWlbckvyZx4EI-1" vertex="1">
                    <mxGeometry x="450.21000000000004" y="-240" width="58" height="58" as="geometry"/>
                </mxCell>
                <mxCell id="kU3VAMtRWlbckvyZx4EI-218" value="EC2" style="text;html=1;strokeColor=none;fillColor=none;align=center;verticalAlign=middle;whiteSpace=wrap;rounded=0;" parent="kU3VAMtRWlbckvyZx4EI-1" vertex="1">
                    <mxGeometry x="460" y="-184" width="38.42" height="24" as="geometry"/>
                </mxCell>
                <mxCell id="kU3VAMtRWlbckvyZx4EI-219" value="WebAPサーバ(Stb)" style="text;html=1;strokeColor=none;fillColor=none;align=center;verticalAlign=middle;whiteSpace=wrap;rounded=0;" parent="kU3VAMtRWlbckvyZx4EI-1" vertex="1">
                    <mxGeometry x="391.84000000000003" y="-162" width="174.75" height="20" as="geometry"/>
                </mxCell>
                <mxCell id="kU3VAMtRWlbckvyZx4EI-220" value="" style="points=[[0,0,0],[0.25,0,0],[0.5,0,0],[0.75,0,0],[1,0,0],[0,1,0],[0.25,1,0],[0.5,1,0],[0.75,1,0],[1,1,0],[0,0.25,0],[0,0.5,0],[0,0.75,0],[1,0.25,0],[1,0.5,0],[1,0.75,0]];outlineConnect=0;fontColor=#232F3E;gradientColor=#F78E04;gradientDirection=north;fillColor=#D05C17;strokeColor=#ffffff;dashed=0;verticalLabelPosition=bottom;verticalAlign=top;align=center;html=1;fontSize=12;fontStyle=0;aspect=fixed;shape=mxgraph.aws4.resourceIcon;resIcon=mxgraph.aws4.ec2;" parent="kU3VAMtRWlbckvyZx4EI-1" vertex="1">
                    <mxGeometry x="828.8700000000001" y="-240" width="58" height="58" as="geometry"/>
                </mxCell>
                <mxCell id="kU3VAMtRWlbckvyZx4EI-221" value="EC2" style="text;html=1;strokeColor=none;fillColor=none;align=center;verticalAlign=middle;whiteSpace=wrap;rounded=0;" parent="kU3VAMtRWlbckvyZx4EI-1" vertex="1">
                    <mxGeometry x="838.6600000000001" y="-184" width="38.42" height="24" as="geometry"/>
                </mxCell>
                <mxCell id="kU3VAMtRWlbckvyZx4EI-222" value="WebAPサーバ(Stb)" style="text;html=1;strokeColor=none;fillColor=none;align=center;verticalAlign=middle;whiteSpace=wrap;rounded=0;" parent="kU3VAMtRWlbckvyZx4EI-1" vertex="1">
                    <mxGeometry x="770.5" y="-162" width="174.75" height="20" as="geometry"/>
                </mxCell>
                <mxCell id="kU3VAMtRWlbckvyZx4EI-223" value="" style="endArrow=classic;html=1;rounded=1;edgeStyle=orthogonalEdgeStyle;startArrow=classic;startFill=1;exitX=0.457;exitY=1.004;exitDx=0;exitDy=0;exitPerimeter=0;entryX=1;entryY=1;entryDx=0;entryDy=0;" parent="kU3VAMtRWlbckvyZx4EI-1" source="kU3VAMtRWlbckvyZx4EI-89" target="kU3VAMtRWlbckvyZx4EI-240" edge="1">
                    <mxGeometry width="50" height="50" relative="1" as="geometry">
                        <mxPoint x="660" y="-900" as="sourcePoint"/>
                        <mxPoint x="479" y="-260" as="targetPoint"/>
                        <Array as="points">
                            <mxPoint x="660" y="-460"/>
                            <mxPoint x="660" y="-280"/>
                            <mxPoint x="477" y="-280"/>
                        </Array>
                    </mxGeometry>
                </mxCell>
                <mxCell id="kU3VAMtRWlbckvyZx4EI-224" value="" style="endArrow=classic;html=1;rounded=1;edgeStyle=orthogonalEdgeStyle;startArrow=classic;startFill=1;entryX=0;entryY=0.5;entryDx=0;entryDy=0;entryPerimeter=0;exitX=0.102;exitY=0.333;exitDx=0;exitDy=0;exitPerimeter=0;" parent="kU3VAMtRWlbckvyZx4EI-1" source="kU3VAMtRWlbckvyZx4EI-207" target="kU3VAMtRWlbckvyZx4EI-217" edge="1">
                    <mxGeometry width="50" height="50" relative="1" as="geometry">
                        <mxPoint x="450" y="10" as="sourcePoint"/>
                        <mxPoint x="461.99" y="-350.0000000000002" as="targetPoint"/>
                        <Array as="points">
                            <mxPoint x="340" y="-10"/>
                            <mxPoint x="340" y="-211"/>
                        </Array>
                    </mxGeometry>
                </mxCell>
                <mxCell id="kU3VAMtRWlbckvyZx4EI-225" value="" style="endArrow=classic;html=1;rounded=1;edgeStyle=orthogonalEdgeStyle;startArrow=classic;startFill=1;exitX=0.5;exitY=0.02;exitDx=0;exitDy=0;exitPerimeter=0;entryX=1;entryY=0.75;entryDx=0;entryDy=0;entryPerimeter=0;" parent="kU3VAMtRWlbckvyZx4EI-1" source="kU3VAMtRWlbckvyZx4EI-152" target="kU3VAMtRWlbckvyZx4EI-217" edge="1">
                    <mxGeometry width="50" height="50" relative="1" as="geometry">
                        <mxPoint x="487.9151300000001" y="200.02000000000044" as="sourcePoint"/>
                        <mxPoint x="510" y="-210" as="targetPoint"/>
                        <Array as="points">
                            <mxPoint x="466" y="110"/>
                            <mxPoint x="560" y="110"/>
                            <mxPoint x="560" y="-197"/>
                            <mxPoint x="508" y="-197"/>
                        </Array>
                    </mxGeometry>
                </mxCell>
                <mxCell id="kU3VAMtRWlbckvyZx4EI-226" value="" style="endArrow=classic;html=1;rounded=1;edgeStyle=orthogonalEdgeStyle;startArrow=classic;startFill=1;entryX=0;entryY=0.5;entryDx=0;entryDy=0;entryPerimeter=0;exitX=0.192;exitY=0.333;exitDx=0;exitDy=0;exitPerimeter=0;" parent="kU3VAMtRWlbckvyZx4EI-1" source="kU3VAMtRWlbckvyZx4EI-207" target="kU3VAMtRWlbckvyZx4EI-220" edge="1">
                    <mxGeometry width="50" height="50" relative="1" as="geometry">
                        <mxPoint x="490" y="-20" as="sourcePoint"/>
                        <mxPoint x="460.21000000000004" y="-221" as="targetPoint"/>
                        <Array as="points">
                            <mxPoint x="590" y="-10"/>
                            <mxPoint x="590" y="-100"/>
                            <mxPoint x="710" y="-100"/>
                            <mxPoint x="710" y="-211"/>
                        </Array>
                    </mxGeometry>
                </mxCell>
                <mxCell id="kU3VAMtRWlbckvyZx4EI-227" value="" style="endArrow=classic;html=1;rounded=1;edgeStyle=orthogonalEdgeStyle;startArrow=classic;startFill=1;entryX=0;entryY=0.75;entryDx=0;entryDy=0;entryPerimeter=0;" parent="kU3VAMtRWlbckvyZx4EI-1" target="kU3VAMtRWlbckvyZx4EI-220" edge="1">
                    <mxGeometry width="50" height="50" relative="1" as="geometry">
                        <mxPoint x="491" y="223" as="sourcePoint"/>
                        <mxPoint x="838.8699999999999" y="-221" as="targetPoint"/>
                        <Array as="points">
                            <mxPoint x="580" y="223"/>
                            <mxPoint x="580" y="120"/>
                            <mxPoint x="760" y="120"/>
                            <mxPoint x="760" y="-197"/>
                            <mxPoint x="829" y="-197"/>
                        </Array>
                    </mxGeometry>
                </mxCell>
                <mxCell id="kU3VAMtRWlbckvyZx4EI-228" value="" style="endArrow=classic;html=1;fillColor=#dae8fc;strokeColor=#6c8ebf;edgeStyle=orthogonalEdgeStyle;elbow=vertical;rounded=1;startArrow=classic;startFill=1;exitX=1;exitY=0.25;exitDx=0;exitDy=0;exitPerimeter=0;" parent="kU3VAMtRWlbckvyZx4EI-1" source="kU3VAMtRWlbckvyZx4EI-217" edge="1">
                    <mxGeometry width="50" height="50" relative="1" as="geometry">
                        <mxPoint x="510" y="-240" as="sourcePoint"/>
                        <mxPoint x="1270" y="-890" as="targetPoint"/>
                        <Array as="points">
                            <mxPoint x="530" y="-226"/>
                            <mxPoint x="530" y="-270"/>
                            <mxPoint x="1000" y="-270"/>
                            <mxPoint x="1000" y="-890"/>
                        </Array>
                    </mxGeometry>
                </mxCell>
                <mxCell id="kU3VAMtRWlbckvyZx4EI-229" value="" style="endArrow=classic;html=1;fillColor=#dae8fc;strokeColor=#6c8ebf;edgeStyle=orthogonalEdgeStyle;elbow=vertical;rounded=1;startArrow=classic;startFill=1;exitX=1;exitY=0.25;exitDx=0;exitDy=0;exitPerimeter=0;" parent="kU3VAMtRWlbckvyZx4EI-1" source="kU3VAMtRWlbckvyZx4EI-220" edge="1">
                    <mxGeometry width="50" height="50" relative="1" as="geometry">
                        <mxPoint x="520" y="-230" as="sourcePoint"/>
                        <mxPoint x="1270" y="-890" as="targetPoint"/>
                        <Array as="points">
                            <mxPoint x="970" y="-245"/>
                            <mxPoint x="1000" y="-245"/>
                            <mxPoint x="1000" y="-890"/>
                        </Array>
                    </mxGeometry>
                </mxCell>
                <mxCell id="kU3VAMtRWlbckvyZx4EI-230" value="" style="endArrow=classic;html=1;fillColor=#d5e8d4;strokeColor=#82b366;edgeStyle=orthogonalEdgeStyle;startArrow=classic;startFill=1;exitX=1;exitY=0.75;exitDx=0;exitDy=0;exitPerimeter=0;" parent="kU3VAMtRWlbckvyZx4EI-1" source="kU3VAMtRWlbckvyZx4EI-167" edge="1">
                    <mxGeometry width="50" height="50" relative="1" as="geometry">
                        <mxPoint x="896.8699999999999" y="-806.5" as="sourcePoint"/>
                        <mxPoint x="1130" y="-740" as="targetPoint"/>
                        <Array as="points">
                            <mxPoint x="560" y="-816"/>
                            <mxPoint x="560" y="-740"/>
                        </Array>
                    </mxGeometry>
                </mxCell>
                <mxCell id="kU3VAMtRWlbckvyZx4EI-231" value="" style="endArrow=classic;html=1;fillColor=#d5e8d4;strokeColor=#82b366;edgeStyle=orthogonalEdgeStyle;rounded=1;startArrow=classic;startFill=1;exitX=1;exitY=0.5;exitDx=0;exitDy=0;exitPerimeter=0;entryX=0.25;entryY=1;entryDx=0;entryDy=0;" parent="kU3VAMtRWlbckvyZx4EI-1" source="kU3VAMtRWlbckvyZx4EI-217" target="kU3VAMtRWlbckvyZx4EI-23" edge="1">
                    <mxGeometry width="50" height="50" relative="1" as="geometry">
                        <mxPoint x="897.1199999999999" y="-363.5" as="sourcePoint"/>
                        <mxPoint x="1149.9999999999995" y="-684.52" as="targetPoint"/>
                        <Array as="points">
                            <mxPoint x="620" y="-211"/>
                            <mxPoint x="620" y="-450"/>
                            <mxPoint x="1140" y="-450"/>
                        </Array>
                    </mxGeometry>
                </mxCell>
                <mxCell id="kU3VAMtRWlbckvyZx4EI-232" value="" style="endArrow=classic;html=1;fillColor=#dae8fc;strokeColor=#6c8ebf;edgeStyle=orthogonalEdgeStyle;elbow=vertical;rounded=1;startArrow=classic;startFill=1;exitX=1;exitY=0.25;exitDx=0;exitDy=0;exitPerimeter=0;entryX=0;entryY=0.5;entryDx=0;entryDy=0;entryPerimeter=0;" parent="kU3VAMtRWlbckvyZx4EI-1" source="kU3VAMtRWlbckvyZx4EI-196" target="kU3VAMtRWlbckvyZx4EI-35" edge="1">
                    <mxGeometry width="50" height="50" relative="1" as="geometry">
                        <mxPoint x="510" y="-370" as="sourcePoint"/>
                        <mxPoint x="1270" y="-890" as="targetPoint"/>
                        <Array as="points">
                            <mxPoint x="560" y="-374"/>
                            <mxPoint x="560" y="-460"/>
                            <mxPoint x="1000" y="-460"/>
                            <mxPoint x="1000" y="-891"/>
                        </Array>
                    </mxGeometry>
                </mxCell>
                <mxCell id="kU3VAMtRWlbckvyZx4EI-233" value="" style="endArrow=classic;html=1;fillColor=#d5e8d4;strokeColor=#82b366;edgeStyle=orthogonalEdgeStyle;rounded=1;startArrow=classic;startFill=1;exitX=1;exitY=0.5;exitDx=0;exitDy=0;exitPerimeter=0;entryX=0.25;entryY=1;entryDx=0;entryDy=0;" parent="kU3VAMtRWlbckvyZx4EI-1" source="kU3VAMtRWlbckvyZx4EI-220" target="kU3VAMtRWlbckvyZx4EI-23" edge="1">
                    <mxGeometry width="50" height="50" relative="1" as="geometry">
                        <mxPoint x="518.21" y="-221" as="sourcePoint"/>
                        <mxPoint x="1150" y="-684.52" as="targetPoint"/>
                        <Array as="points">
                            <mxPoint x="1140" y="-211"/>
                        </Array>
                    </mxGeometry>
                </mxCell>
                <mxCell id="kU3VAMtRWlbckvyZx4EI-234" value="&lt;span style=&quot;font-size: 16px; text-align: left; word-spacing: 1px; background-color: rgb(255, 255, 255);&quot;&gt;ap-northeast-1a&lt;/span&gt;" style="text;html=1;strokeColor=none;fillColor=none;align=center;verticalAlign=middle;whiteSpace=wrap;rounded=0;fontColor=#FF8000;" parent="kU3VAMtRWlbckvyZx4EI-1" vertex="1">
                    <mxGeometry x="330.32718446601945" y="-977.6694214876034" width="139.1873786407767" height="25.636363636363637" as="geometry"/>
                </mxCell>
                <mxCell id="kU3VAMtRWlbckvyZx4EI-235" style="edgeStyle=orthogonalEdgeStyle;rounded=0;orthogonalLoop=1;jettySize=auto;html=1;exitX=0.5;exitY=1;exitDx=0;exitDy=0;" parent="kU3VAMtRWlbckvyZx4EI-1" edge="1">
                    <mxGeometry x="320" y="-980" as="geometry">
                        <mxPoint x="474.6100000000001" y="242.57792207792227" as="sourcePoint"/>
                        <mxPoint x="474.6100000000001" y="242.57792207792227" as="targetPoint"/>
                    </mxGeometry>
                </mxCell>
                <mxCell id="kU3VAMtRWlbckvyZx4EI-236" value="クラスタリング" style="rounded=0;whiteSpace=wrap;html=1;fontSize=12;dashed=1;" parent="kU3VAMtRWlbckvyZx4EI-1" vertex="1">
                    <mxGeometry x="612.5" y="-844" width="95" height="24" as="geometry"/>
                </mxCell>
                <mxCell id="kU3VAMtRWlbckvyZx4EI-237" value="" style="endArrow=classic;html=1;rounded=1;edgeStyle=orthogonalEdgeStyle;startArrow=classic;startFill=1;exitX=0.463;exitY=0.989;exitDx=0;exitDy=0;exitPerimeter=0;entryX=0.5;entryY=0;entryDx=0;entryDy=0;entryPerimeter=0;" parent="kU3VAMtRWlbckvyZx4EI-1" source="kU3VAMtRWlbckvyZx4EI-89" target="kU3VAMtRWlbckvyZx4EI-220" edge="1">
                    <mxGeometry width="50" height="50" relative="1" as="geometry">
                        <mxPoint x="669.6299999999997" y="-889.6000000000001" as="sourcePoint"/>
                        <mxPoint x="489" y="-250" as="targetPoint"/>
                        <Array as="points">
                            <mxPoint x="660" y="-280"/>
                            <mxPoint x="858" y="-280"/>
                        </Array>
                    </mxGeometry>
                </mxCell>
                <mxCell id="kU3VAMtRWlbckvyZx4EI-238" value="Security Group" style="text;html=1;strokeColor=none;fillColor=none;align=center;verticalAlign=middle;whiteSpace=wrap;rounded=0;fontColor=#FF0000;" parent="kU3VAMtRWlbckvyZx4EI-1" vertex="1">
                    <mxGeometry x="385.8800000000001" y="-418" width="91.58333333333333" height="22" as="geometry"/>
                </mxCell>
                <mxCell id="kU3VAMtRWlbckvyZx4EI-239" value="" style="rounded=1;arcSize=10;dashed=1;strokeColor=#ff0000;fillColor=none;gradientColor=none;dashPattern=8 4;strokeWidth=2;" parent="kU3VAMtRWlbckvyZx4EI-1" vertex="1">
                    <mxGeometry x="388.13" y="-420" width="561.87" height="130" as="geometry"/>
                </mxCell>
                <mxCell id="kU3VAMtRWlbckvyZx4EI-240" value="Security Group" style="text;html=1;strokeColor=none;fillColor=none;align=center;verticalAlign=middle;whiteSpace=wrap;rounded=0;fontColor=#FF0000;" parent="kU3VAMtRWlbckvyZx4EI-1" vertex="1">
                    <mxGeometry x="385.8800000000001" y="-262" width="91.58333333333333" height="22" as="geometry"/>
                </mxCell>
                <mxCell id="B1U3DBBo0xqkgTn3dB8k-0" value="④" style="text;html=1;resizable=0;autosize=1;align=center;verticalAlign=middle;points=[];fillColor=none;strokeColor=none;rounded=0;fontSize=40;fontStyle=1" parent="kU3VAMtRWlbckvyZx4EI-1" vertex="1">
                    <mxGeometry x="230" y="-1240" width="60" height="50" as="geometry"/>
                </mxCell>
                <mxCell id="B1U3DBBo0xqkgTn3dB8k-1" value="③" style="text;html=1;resizable=0;autosize=1;align=center;verticalAlign=middle;points=[];fillColor=none;strokeColor=none;rounded=0;fontSize=40;fontStyle=1" parent="kU3VAMtRWlbckvyZx4EI-1" vertex="1">
                    <mxGeometry x="190" y="-1240" width="60" height="50" as="geometry"/>
                </mxCell>
                <mxCell id="8f0syRxBGtGSu6YeWcur-0" value="④" style="text;html=1;resizable=0;autosize=1;align=center;verticalAlign=middle;points=[];fillColor=none;strokeColor=none;rounded=0;fontSize=40;fontStyle=1" parent="kU3VAMtRWlbckvyZx4EI-1" vertex="1">
                    <mxGeometry x="543.44" y="-1229" width="60" height="50" as="geometry"/>
                </mxCell>
                <mxCell id="8f0syRxBGtGSu6YeWcur-1" value="③" style="text;html=1;resizable=0;autosize=1;align=center;verticalAlign=middle;points=[];fillColor=none;strokeColor=none;rounded=0;fontSize=40;fontStyle=1" parent="kU3VAMtRWlbckvyZx4EI-1" vertex="1">
                    <mxGeometry x="503.44" y="-1229" width="60" height="50" as="geometry"/>
                </mxCell>
                <mxCell id="8f0syRxBGtGSu6YeWcur-2" value="⑤" style="text;html=1;resizable=0;autosize=1;align=center;verticalAlign=middle;points=[];fillColor=none;strokeColor=none;rounded=0;fontSize=40;fontStyle=1" parent="kU3VAMtRWlbckvyZx4EI-1" vertex="1">
                    <mxGeometry x="523.44" y="-1200" width="60" height="50" as="geometry"/>
                </mxCell>
                <mxCell id="mcVY7leRHJBvzLiTXhv_-0" value="③" style="text;html=1;resizable=0;autosize=1;align=center;verticalAlign=middle;points=[];fillColor=none;strokeColor=none;rounded=0;fontSize=40;fontStyle=1" parent="kU3VAMtRWlbckvyZx4EI-1" vertex="1">
                    <mxGeometry x="1205.9" y="-1240" width="60" height="50" as="geometry"/>
                </mxCell>
                <mxCell id="mcVY7leRHJBvzLiTXhv_-1" value="③" style="text;html=1;resizable=0;autosize=1;align=center;verticalAlign=middle;points=[];fillColor=none;strokeColor=none;rounded=0;fontSize=40;fontStyle=1" parent="kU3VAMtRWlbckvyZx4EI-1" vertex="1">
                    <mxGeometry x="1135.9" y="-1240" width="60" height="50" as="geometry"/>
                </mxCell>
                <mxCell id="mcVY7leRHJBvzLiTXhv_-2" value="②" style="text;html=1;resizable=0;autosize=1;align=center;verticalAlign=middle;points=[];fillColor=none;strokeColor=none;rounded=0;fontSize=40;fontStyle=1" parent="kU3VAMtRWlbckvyZx4EI-1" vertex="1">
                    <mxGeometry x="792.82" y="-1240" width="60" height="50" as="geometry"/>
                </mxCell>
                <mxCell id="FekdWk5mHc6hW42hbNsi-0" value="②" style="text;html=1;resizable=0;autosize=1;align=center;verticalAlign=middle;points=[];fillColor=none;strokeColor=none;rounded=0;fontSize=40;fontStyle=1" parent="kU3VAMtRWlbckvyZx4EI-1" vertex="1">
                    <mxGeometry x="585" y="-975" width="60" height="50" as="geometry"/>
                </mxCell>
                <mxCell id="sSexrZJK0zunJHk7D1AR-0" value="②" style="text;html=1;resizable=0;autosize=1;align=center;verticalAlign=middle;points=[];fillColor=none;strokeColor=none;rounded=0;fontSize=40;fontStyle=1" parent="kU3VAMtRWlbckvyZx4EI-1" vertex="1">
                    <mxGeometry x="590" y="-590" width="60" height="50" as="geometry"/>
                </mxCell>
                <mxCell id="sSexrZJK0zunJHk7D1AR-1" value="③" style="text;html=1;resizable=0;autosize=1;align=center;verticalAlign=middle;points=[];fillColor=none;strokeColor=none;rounded=0;fontSize=40;fontStyle=1" parent="kU3VAMtRWlbckvyZx4EI-1" vertex="1">
                    <mxGeometry x="630" y="-590" width="60" height="50" as="geometry"/>
                </mxCell>
                <mxCell id="sSexrZJK0zunJHk7D1AR-2" value="④" style="text;html=1;resizable=0;autosize=1;align=center;verticalAlign=middle;points=[];fillColor=none;strokeColor=none;rounded=0;fontSize=40;fontStyle=1" parent="kU3VAMtRWlbckvyZx4EI-1" vertex="1">
                    <mxGeometry x="671.13" y="-590" width="60" height="50" as="geometry"/>
                </mxCell>
                <mxCell id="sSexrZJK0zunJHk7D1AR-3" value="⑤" style="text;html=1;resizable=0;autosize=1;align=center;verticalAlign=middle;points=[];fillColor=none;strokeColor=none;rounded=0;fontSize=40;fontStyle=1" parent="kU3VAMtRWlbckvyZx4EI-1" vertex="1">
                    <mxGeometry x="570" y="-559.9999999999998" width="60" height="50" as="geometry"/>
                </mxCell>
                <mxCell id="sSexrZJK0zunJHk7D1AR-4" value="⑧" style="text;html=1;resizable=0;autosize=1;align=center;verticalAlign=middle;points=[];fillColor=none;strokeColor=none;rounded=0;fontSize=40;fontStyle=1" parent="kU3VAMtRWlbckvyZx4EI-1" vertex="1">
                    <mxGeometry x="650" y="-559.9999999999998" width="60" height="50" as="geometry"/>
                </mxCell>
                <mxCell id="sSexrZJK0zunJHk7D1AR-5" value="⑨" style="text;html=1;resizable=0;autosize=1;align=center;verticalAlign=middle;points=[];fillColor=none;strokeColor=none;rounded=0;fontSize=40;fontStyle=1" parent="kU3VAMtRWlbckvyZx4EI-1" vertex="1">
                    <mxGeometry x="690" y="-559.9999999999998" width="60" height="50" as="geometry"/>
                </mxCell>
                <mxCell id="sSexrZJK0zunJHk7D1AR-6" value="①" style="text;html=1;resizable=0;autosize=1;align=center;verticalAlign=middle;points=[];fillColor=none;strokeColor=none;rounded=0;fontSize=40;fontStyle=1" parent="kU3VAMtRWlbckvyZx4EI-1" vertex="1">
                    <mxGeometry x="538.8" y="-700.52" width="60" height="50" as="geometry"/>
                </mxCell>
                <mxCell id="sSexrZJK0zunJHk7D1AR-7" value="①" style="text;html=1;resizable=0;autosize=1;align=center;verticalAlign=middle;points=[];fillColor=none;strokeColor=none;rounded=0;fontSize=40;fontStyle=1" parent="kU3VAMtRWlbckvyZx4EI-1" vertex="1">
                    <mxGeometry x="929.5" y="-703" width="60" height="50" as="geometry"/>
                </mxCell>
                <mxCell id="RK_CerKalQEAr3igV1q9-0" value="⑥" style="text;html=1;resizable=0;autosize=1;align=center;verticalAlign=middle;points=[];fillColor=none;strokeColor=none;rounded=0;fontSize=40;fontStyle=1" parent="kU3VAMtRWlbckvyZx4EI-1" vertex="1">
                    <mxGeometry x="610" y="-559.9999999999998" width="60" height="50" as="geometry"/>
                </mxCell>
                <mxCell id="7LzInUzgGYJvZBbVcMhJ-0" value="①" style="text;html=1;resizable=0;autosize=1;align=center;verticalAlign=middle;points=[];fillColor=none;strokeColor=none;rounded=0;fontSize=40;fontStyle=1" parent="kU3VAMtRWlbckvyZx4EI-1" vertex="1">
                    <mxGeometry x="550.93" y="-463" width="60" height="50" as="geometry"/>
                </mxCell>
                <mxCell id="7LzInUzgGYJvZBbVcMhJ-1" value="⑦" style="text;html=1;resizable=0;autosize=1;align=center;verticalAlign=middle;points=[];fillColor=none;strokeColor=none;rounded=0;fontSize=40;fontStyle=1" parent="kU3VAMtRWlbckvyZx4EI-1" vertex="1">
                    <mxGeometry x="616.02" y="-347.4999999999998" width="60" height="50" as="geometry"/>
                </mxCell>
                <mxCell id="7LzInUzgGYJvZBbVcMhJ-2" value="②" style="text;html=1;resizable=0;autosize=1;align=center;verticalAlign=middle;points=[];fillColor=none;strokeColor=none;rounded=0;fontSize=40;fontStyle=1" parent="kU3VAMtRWlbckvyZx4EI-1" vertex="1">
                    <mxGeometry x="582.4499999999999" y="-382.5" width="60" height="50" as="geometry"/>
                </mxCell>
                <mxCell id="7LzInUzgGYJvZBbVcMhJ-3" value="③" style="text;html=1;resizable=0;autosize=1;align=center;verticalAlign=middle;points=[];fillColor=none;strokeColor=none;rounded=0;fontSize=40;fontStyle=1" parent="kU3VAMtRWlbckvyZx4EI-1" vertex="1">
                    <mxGeometry x="616.02" y="-382.5" width="60" height="50" as="geometry"/>
                </mxCell>
                <mxCell id="7LzInUzgGYJvZBbVcMhJ-4" value="④" style="text;html=1;resizable=0;autosize=1;align=center;verticalAlign=middle;points=[];fillColor=none;strokeColor=none;rounded=0;fontSize=40;fontStyle=1" parent="kU3VAMtRWlbckvyZx4EI-1" vertex="1">
                    <mxGeometry x="651.02" y="-382.5" width="60" height="50" as="geometry"/>
                </mxCell>
                <mxCell id="7LzInUzgGYJvZBbVcMhJ-5" value="⑤" style="text;html=1;resizable=0;autosize=1;align=center;verticalAlign=middle;points=[];fillColor=none;strokeColor=none;rounded=0;fontSize=40;fontStyle=1" parent="kU3VAMtRWlbckvyZx4EI-1" vertex="1">
                    <mxGeometry x="686.91" y="-382.4999999999998" width="60" height="50" as="geometry"/>
                </mxCell>
                <mxCell id="7LzInUzgGYJvZBbVcMhJ-6" value="⑥" style="text;html=1;resizable=0;autosize=1;align=center;verticalAlign=middle;points=[];fillColor=none;strokeColor=none;rounded=0;fontSize=40;fontStyle=1" parent="kU3VAMtRWlbckvyZx4EI-1" vertex="1">
                    <mxGeometry x="582.4499999999999" y="-347.4999999999998" width="60" height="50" as="geometry"/>
                </mxCell>
                <mxCell id="7LzInUzgGYJvZBbVcMhJ-7" value="⑧" style="text;html=1;resizable=0;autosize=1;align=center;verticalAlign=middle;points=[];fillColor=none;strokeColor=none;rounded=0;fontSize=40;fontStyle=1" parent="kU3VAMtRWlbckvyZx4EI-1" vertex="1">
                    <mxGeometry x="651.02" y="-347.4999999999998" width="60" height="50" as="geometry"/>
                </mxCell>
                <mxCell id="7LzInUzgGYJvZBbVcMhJ-8" value="⑨" style="text;html=1;resizable=0;autosize=1;align=center;verticalAlign=middle;points=[];fillColor=none;strokeColor=none;rounded=0;fontSize=40;fontStyle=1" parent="kU3VAMtRWlbckvyZx4EI-1" vertex="1">
                    <mxGeometry x="686.91" y="-347.4999999999998" width="60" height="50" as="geometry"/>
                </mxCell>
                <mxCell id="7LzInUzgGYJvZBbVcMhJ-9" value="①" style="text;html=1;resizable=0;autosize=1;align=center;verticalAlign=middle;points=[];fillColor=none;strokeColor=none;rounded=0;fontSize=40;fontStyle=1" parent="kU3VAMtRWlbckvyZx4EI-1" vertex="1">
                    <mxGeometry x="939.25" y="-463" width="60" height="50" as="geometry"/>
                </mxCell>
                <mxCell id="x9AX7JwIg3C57CEKQxEi-0" value="①" style="text;html=1;resizable=0;autosize=1;align=center;verticalAlign=middle;points=[];fillColor=none;strokeColor=none;rounded=0;fontSize=40;fontStyle=1" parent="kU3VAMtRWlbckvyZx4EI-1" vertex="1">
                    <mxGeometry x="546" y="-290" width="60" height="50" as="geometry"/>
                </mxCell>
                <mxCell id="x9AX7JwIg3C57CEKQxEi-1" value="⑦" style="text;html=1;resizable=0;autosize=1;align=center;verticalAlign=middle;points=[];fillColor=none;strokeColor=none;rounded=0;fontSize=40;fontStyle=1" parent="kU3VAMtRWlbckvyZx4EI-1" vertex="1">
                    <mxGeometry x="615.27" y="-149.99999999999977" width="60" height="50" as="geometry"/>
                </mxCell>
                <mxCell id="x9AX7JwIg3C57CEKQxEi-2" value="②" style="text;html=1;resizable=0;autosize=1;align=center;verticalAlign=middle;points=[];fillColor=none;strokeColor=none;rounded=0;fontSize=40;fontStyle=1" parent="kU3VAMtRWlbckvyZx4EI-1" vertex="1">
                    <mxGeometry x="581.6999999999999" y="-185" width="60" height="50" as="geometry"/>
                </mxCell>
                <mxCell id="x9AX7JwIg3C57CEKQxEi-3" value="③" style="text;html=1;resizable=0;autosize=1;align=center;verticalAlign=middle;points=[];fillColor=none;strokeColor=none;rounded=0;fontSize=40;fontStyle=1" parent="kU3VAMtRWlbckvyZx4EI-1" vertex="1">
                    <mxGeometry x="615.27" y="-185" width="60" height="50" as="geometry"/>
                </mxCell>
                <mxCell id="x9AX7JwIg3C57CEKQxEi-4" value="④" style="text;html=1;resizable=0;autosize=1;align=center;verticalAlign=middle;points=[];fillColor=none;strokeColor=none;rounded=0;fontSize=40;fontStyle=1" parent="kU3VAMtRWlbckvyZx4EI-1" vertex="1">
                    <mxGeometry x="650.27" y="-185" width="60" height="50" as="geometry"/>
                </mxCell>
                <mxCell id="x9AX7JwIg3C57CEKQxEi-5" value="⑤" style="text;html=1;resizable=0;autosize=1;align=center;verticalAlign=middle;points=[];fillColor=none;strokeColor=none;rounded=0;fontSize=40;fontStyle=1" parent="kU3VAMtRWlbckvyZx4EI-1" vertex="1">
                    <mxGeometry x="686.16" y="-184.99999999999977" width="60" height="50" as="geometry"/>
                </mxCell>
                <mxCell id="x9AX7JwIg3C57CEKQxEi-6" value="⑥" style="text;html=1;resizable=0;autosize=1;align=center;verticalAlign=middle;points=[];fillColor=none;strokeColor=none;rounded=0;fontSize=40;fontStyle=1" parent="kU3VAMtRWlbckvyZx4EI-1" vertex="1">
                    <mxGeometry x="581.6999999999999" y="-149.99999999999977" width="60" height="50" as="geometry"/>
                </mxCell>
                <mxCell id="x9AX7JwIg3C57CEKQxEi-7" value="⑧" style="text;html=1;resizable=0;autosize=1;align=center;verticalAlign=middle;points=[];fillColor=none;strokeColor=none;rounded=0;fontSize=40;fontStyle=1" parent="kU3VAMtRWlbckvyZx4EI-1" vertex="1">
                    <mxGeometry x="650.27" y="-149.99999999999977" width="60" height="50" as="geometry"/>
                </mxCell>
                <mxCell id="x9AX7JwIg3C57CEKQxEi-8" value="⑨" style="text;html=1;resizable=0;autosize=1;align=center;verticalAlign=middle;points=[];fillColor=none;strokeColor=none;rounded=0;fontSize=40;fontStyle=1" parent="kU3VAMtRWlbckvyZx4EI-1" vertex="1">
                    <mxGeometry x="686.16" y="-149.99999999999977" width="60" height="50" as="geometry"/>
                </mxCell>
                <mxCell id="x9AX7JwIg3C57CEKQxEi-9" value="①" style="text;html=1;resizable=0;autosize=1;align=center;verticalAlign=middle;points=[];fillColor=none;strokeColor=none;rounded=0;fontSize=40;fontStyle=1" parent="kU3VAMtRWlbckvyZx4EI-1" vertex="1">
                    <mxGeometry x="939.25" y="-276" width="60" height="50" as="geometry"/>
                </mxCell>
                <mxCell id="OJ6HOj0B4Vs3BTvqrqv2-0" value="①" style="text;html=1;resizable=0;autosize=1;align=center;verticalAlign=middle;points=[];fillColor=none;strokeColor=none;rounded=0;fontSize=40;fontStyle=1" parent="kU3VAMtRWlbckvyZx4EI-1" vertex="1">
                    <mxGeometry x="918.32" y="-80" width="60" height="50" as="geometry"/>
                </mxCell>
                <mxCell id="OJ6HOj0B4Vs3BTvqrqv2-1" value="①" style="text;html=1;resizable=0;autosize=1;align=center;verticalAlign=middle;points=[];fillColor=none;strokeColor=none;rounded=0;fontSize=40;fontStyle=1" parent="kU3VAMtRWlbckvyZx4EI-1" vertex="1">
                    <mxGeometry x="527.62" y="-80" width="60" height="50" as="geometry"/>
                </mxCell>
                <mxCell id="OJ6HOj0B4Vs3BTvqrqv2-2" value="②" style="text;html=1;resizable=0;autosize=1;align=center;verticalAlign=middle;points=[];fillColor=none;strokeColor=none;rounded=0;fontSize=40;fontStyle=1" parent="kU3VAMtRWlbckvyZx4EI-1" vertex="1">
                    <mxGeometry x="629.9999999999999" y="17" width="60" height="50" as="geometry"/>
                </mxCell>
                <mxCell id="G4syeNsAP--gEN3sHyN8-0" value="①" style="text;html=1;resizable=0;autosize=1;align=center;verticalAlign=middle;points=[];fillColor=none;strokeColor=none;rounded=0;fontSize=40;fontStyle=1" parent="kU3VAMtRWlbckvyZx4EI-1" vertex="1">
                    <mxGeometry x="929.5" y="135.5" width="60" height="50" as="geometry"/>
                </mxCell>
                <mxCell id="G4syeNsAP--gEN3sHyN8-1" value="②" style="text;html=1;resizable=0;autosize=1;align=center;verticalAlign=middle;points=[];fillColor=none;strokeColor=none;rounded=0;fontSize=40;fontStyle=1" parent="kU3VAMtRWlbckvyZx4EI-1" vertex="1">
                    <mxGeometry x="593.37" y="230.5" width="60" height="50" as="geometry"/>
                </mxCell>
                <mxCell id="G4syeNsAP--gEN3sHyN8-2" value="③" style="text;html=1;resizable=0;autosize=1;align=center;verticalAlign=middle;points=[];fillColor=none;strokeColor=none;rounded=0;fontSize=40;fontStyle=1" parent="kU3VAMtRWlbckvyZx4EI-1" vertex="1">
                    <mxGeometry x="633.37" y="230.5" width="60" height="50" as="geometry"/>
                </mxCell>
                <mxCell id="G4syeNsAP--gEN3sHyN8-3" value="④" style="text;html=1;resizable=0;autosize=1;align=center;verticalAlign=middle;points=[];fillColor=none;strokeColor=none;rounded=0;fontSize=40;fontStyle=1" parent="kU3VAMtRWlbckvyZx4EI-1" vertex="1">
                    <mxGeometry x="674.5" y="230.5" width="60" height="50" as="geometry"/>
                </mxCell>
                <mxCell id="G4syeNsAP--gEN3sHyN8-4" value="⑤" style="text;html=1;resizable=0;autosize=1;align=center;verticalAlign=middle;points=[];fillColor=none;strokeColor=none;rounded=0;fontSize=40;fontStyle=1" parent="kU3VAMtRWlbckvyZx4EI-1" vertex="1">
                    <mxGeometry x="613.95" y="260.5000000000002" width="60" height="50" as="geometry"/>
                </mxCell>
                <mxCell id="G4syeNsAP--gEN3sHyN8-5" value="⑧" style="text;html=1;resizable=0;autosize=1;align=center;verticalAlign=middle;points=[];fillColor=none;strokeColor=none;rounded=0;fontSize=40;fontStyle=1" parent="kU3VAMtRWlbckvyZx4EI-1" vertex="1">
                    <mxGeometry x="653.37" y="260.5000000000002" width="60" height="50" as="geometry"/>
                </mxCell>
                <mxCell id="G4syeNsAP--gEN3sHyN8-6" value="①" style="text;html=1;resizable=0;autosize=1;align=center;verticalAlign=middle;points=[];fillColor=none;strokeColor=none;rounded=0;fontSize=40;fontStyle=1" parent="kU3VAMtRWlbckvyZx4EI-1" vertex="1">
                    <mxGeometry x="508.44" y="120" width="60" height="50" as="geometry"/>
                </mxCell>
                <mxCell id="yX8HpUCSqfjqGfM3mtQV-0" value="⑧" style="text;html=1;resizable=0;autosize=1;align=center;verticalAlign=middle;points=[];fillColor=none;strokeColor=none;rounded=0;fontSize=40;fontStyle=1" parent="kU3VAMtRWlbckvyZx4EI-1" vertex="1">
                    <mxGeometry x="1210" y="-1021.9999999999998" width="60" height="50" as="geometry"/>
                </mxCell>
                <mxCell id="yX8HpUCSqfjqGfM3mtQV-1" value="④" style="text;html=1;resizable=0;autosize=1;align=center;verticalAlign=middle;points=[];fillColor=none;strokeColor=none;rounded=0;fontSize=40;fontStyle=1" parent="kU3VAMtRWlbckvyZx4EI-1" vertex="1">
                    <mxGeometry x="1210" y="-1070" width="60" height="50" as="geometry"/>
                </mxCell>
                <mxCell id="yX8HpUCSqfjqGfM3mtQV-6" value="③" style="text;html=1;resizable=0;autosize=1;align=center;verticalAlign=middle;points=[];fillColor=none;strokeColor=none;rounded=0;fontSize=40;fontStyle=1" parent="kU3VAMtRWlbckvyZx4EI-1" vertex="1">
                    <mxGeometry x="1169.37" y="-1070" width="60" height="50" as="geometry"/>
                </mxCell>
                <mxCell id="0" value="VPC" style="points=[[0,0],[0.25,0],[0.5,0],[0.75,0],[1,0],[1,0.25],[1,0.5],[1,0.75],[1,1],[0.75,1],[0.5,1],[0.25,1],[0,1],[0,0.75],[0,0.5],[0,0.25]];outlineConnect=0;gradientColor=none;html=1;whiteSpace=wrap;fontSize=12;fontStyle=0;shape=mxgraph.aws4.group;grIcon=mxgraph.aws4.group_vpc;strokeColor=#248814;fillColor=none;verticalAlign=top;align=left;spacingLeft=30;fontColor=#AAB7B8;dashed=0;" parent="kU3VAMtRWlbckvyZx4EI-1" vertex="1">
                    <mxGeometry x="1470" y="-820" width="120" height="150" as="geometry"/>
                </mxCell>
            </root>
        </mxGraphModel>
    </diagram>
</mxfile>